<?xml version="1.0" encoding="UTF-8"?>
<svg xmlns="http://www.w3.org/2000/svg" viewBox="0 0 100 1" preserveAspectRatio="none"><rect x="0" y="0.073190" width="1" height="0.926810" fill="#c2410c" /><rect x="1" y="0.204545" width="1" height="0.795455" fill="#c2410c" /><rect x="2" y="0.053847" width="1" height="0.946153" fill="#c2410c" /><rect x="3" y="0.121080" width="1" height="0.878920" fill="#c2410c" /><rect x="4" y="0.228406" width="1" height="0.771594" fill="#c2410c" /><rect x="5" y="0.270774" width="1" height="0.729226" fill="#c2410c" /><rect x="6" y="0.000000" width="1" height="1.000000" fill="#c2410c" /><rect x="7" y="0.243432" width="1" height="0.756568" fill="#c2410c" /><rect x="8" y="0.128777" width="1" height="0.871223" fill="#c2410c" /><rect x="9" y="0.082862" width="1" height="0.917138" fill="#c2410c" /><rect x="10" y="0.299388" width="1" height="0.700612" fill="#c2410c" /><rect x="11" y="0.206419" width="1" height="0.793581" fill="#c2410c" /><rect x="12" y="0.190322" width="1" height="0.809678" fill="#c2410c" /><rect x="13" y="0.088417" width="1" height="0.911583" fill="#c2410c" /><rect x="14" y="0.214886" width="1" height="0.785114" fill="#c2410c" /><rect x="15" y="0.120344" width="1" height="0.879656" fill="#c2410c" /><rect x="16" y="0.197651" width="1" height="0.802349" fill="#c2410c" /><rect x="17" y="0.290753" width="1" height="0.709247" fill="#c2410c" /><rect x="18" y="0.245139" width="1" height="0.754861" fill="#c2410c" /><rect x="19" y="0.110806" width="1" height="0.889194" fill="#c2410c" /><rect x="20" y="0.000000" width="1" height="1.000000" fill="#c2410c" /><rect x="21" y="0.076202" width="1" height="0.923798" fill="#c2410c" /><rect x="22" y="0.094274" width="1" height="0.905726" fill="#c2410c" /><rect x="23" y="0.184565" width="1" height="0.815435" fill="#c2410c" /><rect x="24" y="0.237643" width="1" height="0.762357" fill="#c2410c" /><rect x="25" y="0.055754" width="1" height="0.944246" fill="#c2410c" /><rect x="26" y="0.166393" width="1" height="0.833607" fill="#c2410c" /><rect x="27" y="0.111609" width="1" height="0.888391" fill="#c2410c" /><rect x="28" y="0.118068" width="1" height="0.881932" fill="#c2410c" /><rect x="29" y="0.160537" width="1" height="0.839463" fill="#c2410c" /><rect x="30" y="0.339346" width="1" height="0.660654" fill="#c2410c" /><rect x="31" y="0.079147" width="1" height="0.920853" fill="#c2410c" /><rect x="32" y="0.027676" width="1" height="0.972324" fill="#c2410c" /><rect x="33" y="0.143268" width="1" height="0.856732" fill="#c2410c" /><rect x="34" y="0.084100" width="1" height="0.915900" fill="#c2410c" /><rect x="35" y="0.219036" width="1" height="0.780964" fill="#c2410c" /><rect x="36" y="0.000000" width="1" height="1.000000" fill="#c2410c" /><rect x="37" y="0.051002" width="1" height="0.948998" fill="#c2410c" /><rect x="38" y="0.062080" width="1" height="0.937920" fill="#c2410c" /><rect x="39" y="0.025100" width="1" height="0.974900" fill="#c2410c" /><rect x="40" y="0.144038" width="1" height="0.855962" fill="#c2410c" /><rect x="41" y="0.060607" width="1" height="0.939393" fill="#c2410c" /><rect x="42" y="0.197617" width="1" height="0.802383" fill="#c2410c" /><rect x="43" y="0.107091" width="1" height="0.892909" fill="#c2410c" /><rect x="44" y="0.000000" width="1" height="1.000000" fill="#c2410c" /><rect x="45" y="0.111342" width="1" height="0.888658" fill="#c2410c" /><rect x="46" y="0.076939" width="1" height="0.923061" fill="#c2410c" /><rect x="47" y="0.041264" width="1" height="0.958736" fill="#c2410c" /><rect x="48" y="0.220240" width="1" height="0.779760" fill="#c2410c" /><rect x="49" y="0.048158" width="1" height="0.951842" fill="#c2410c" /><rect x="50" y="0.068505" width="1" height="0.931495" fill="#c2410c" /><rect x="51" y="0.205415" width="1" height="0.794585" fill="#c2410c" /><rect x="52" y="0.351093" width="1" height="0.648907" fill="#c2410c" /><rect x="53" y="0.286369" width="1" height="0.713631" fill="#c2410c" /><rect x="54" y="0.193032" width="1" height="0.806968" fill="#c2410c" /><rect x="55" y="0.225294" width="1" height="0.774706" fill="#c2410c" /><rect x="56" y="0.258927" width="1" height="0.741073" fill="#c2410c" /><rect x="57" y="0.203139" width="1" height="0.796861" fill="#c2410c" /><rect x="58" y="0.102808" width="1" height="0.897192" fill="#c2410c" /><rect x="59" y="0.254443" width="1" height="0.745557" fill="#c2410c" /><rect x="60" y="0.329474" width="1" height="0.670526" fill="#c2410c" /><rect x="61" y="0.181319" width="1" height="0.818681" fill="#c2410c" /><rect x="62" y="0.218199" width="1" height="0.781801" fill="#c2410c" /><rect x="63" y="0.142164" width="1" height="0.857836" fill="#c2410c" /><rect x="64" y="0.248653" width="1" height="0.751347" fill="#c2410c" /><rect x="65" y="0.364011" width="1" height="0.635989" fill="#c2410c" /><rect x="66" y="0.192765" width="1" height="0.807235" fill="#c2410c" /><rect x="67" y="0.350691" width="1" height="0.649309" fill="#c2410c" /><rect x="68" y="0.156889" width="1" height="0.843111" fill="#c2410c" /><rect x="69" y="0.062816" width="1" height="0.937184" fill="#c2410c" /><rect x="70" y="0.124661" width="1" height="0.875339" fill="#c2410c" /><rect x="71" y="0.073056" width="1" height="0.926944" fill="#c2410c" /><rect x="72" y="0.000000" width="1" height="1.000000" fill="#c2410c" /><rect x="73" y="0.111844" width="1" height="0.888156" fill="#c2410c" /><rect x="74" y="0.188782" width="1" height="0.811218" fill="#c2410c" /><rect x="75" y="0.103209" width="1" height="0.896791" fill="#c2410c" /><rect x="76" y="0.034269" width="1" height="0.965731" fill="#c2410c" /><rect x="77" y="0.078913" width="1" height="0.921087" fill="#c2410c" /><rect x="78" y="0.025300" width="1" height="0.974700" fill="#c2410c" /><rect x="79" y="0.000000" width="1" height="1.000000" fill="#c2410c" /><rect x="80" y="0.164452" width="1" height="0.835548" fill="#c2410c" /><rect x="81" y="0.078880" width="1" height="0.921120" fill="#c2410c" /><rect x="82" y="0.102640" width="1" height="0.897360" fill="#c2410c" /><rect x="83" y="0.060540" width="1" height="0.939460" fill="#c2410c" /><rect x="84" y="0.075600" width="1" height="0.924400" fill="#c2410c" /><rect x="85" y="0.114287" width="1" height="0.885713" fill="#c2410c" /><rect x="86" y="0.139052" width="1" height="0.860948" fill="#c2410c" /><rect x="87" y="0.117533" width="1" height="0.882467" fill="#c2410c" /><rect x="88" y="0.037917" width="1" height="0.962083" fill="#c2410c" /><rect x="89" y="0.002142" width="1" height="0.997858" fill="#c2410c" /><rect x="90" y="0.074228" width="1" height="0.925772" fill="#c2410c" /><rect x="91" y="0.046384" width="1" height="0.953616" fill="#c2410c" /><rect x="92" y="0.142231" width="1" height="0.857769" fill="#c2410c" /><rect x="93" y="0.101034" width="1" height="0.898966" fill="#c2410c" /><rect x="94" y="0.018607" width="1" height="0.981393" fill="#c2410c" /><rect x="95" y="0.698906" width="1" height="0.301094" fill="#c2410c" /><rect x="96" y="0.993407" width="1" height="0.006593" fill="#c2410c" /><rect x="97" y="0.997457" width="1" height="0.002543" fill="#c2410c" /><rect x="98" y="0.999163" width="1" height="0.000837" fill="#c2410c" /><rect x="99" y="0.999766" width="1" height="0.000234" fill="#c2410c" /></svg>