<?xml version="1.0" encoding="UTF-8"?>
<svg xmlns="http://www.w3.org/2000/svg" viewBox="0 0 100 1" preserveAspectRatio="none"><rect x="0" y="0.504111" width="1" height="0.495889" fill="#c2410c" /><rect x="1" y="0.411485" width="1" height="0.588515" fill="#c2410c" /><rect x="2" y="0.395341" width="1" height="0.604659" fill="#c2410c" /><rect x="3" y="0.361297" width="1" height="0.638703" fill="#c2410c" /><rect x="4" y="0.502569" width="1" height="0.497431" fill="#c2410c" /><rect x="5" y="0.405661" width="1" height="0.594339" fill="#c2410c" /><rect x="6" y="0.482357" width="1" height="0.517643" fill="#c2410c" /><rect x="7" y="0.227946" width="1" height="0.772054" fill="#c2410c" /><rect x="8" y="0.185723" width="1" height="0.814277" fill="#c2410c" /><rect x="9" y="0.276036" width="1" height="0.723964" fill="#c2410c" /><rect x="10" y="0.195958" width="1" height="0.804042" fill="#c2410c" /><rect x="11" y="0.198099" width="1" height="0.801901" fill="#c2410c" /><rect x="12" y="0.294279" width="1" height="0.705721" fill="#c2410c" /><rect x="13" y="0.143457" width="1" height="0.856543" fill="#c2410c" /><rect x="14" y="0.248587" width="1" height="0.751413" fill="#c2410c" /><rect x="15" y="0.167223" width="1" height="0.832777" fill="#c2410c" /><rect x="16" y="0.255053" width="1" height="0.744947" fill="#c2410c" /><rect x="17" y="0.355087" width="1" height="0.644913" fill="#c2410c" /><rect x="18" y="0.054471" width="1" height="0.945529" fill="#c2410c" /><rect x="19" y="0.242806" width="1" height="0.757194" fill="#c2410c" /><rect x="20" y="0.273296" width="1" height="0.726704" fill="#c2410c" /><rect x="21" y="0.174075" width="1" height="0.825925" fill="#c2410c" /><rect x="22" y="0.029933" width="1" height="0.970067" fill="#c2410c" /><rect x="23" y="0.071942" width="1" height="0.928058" fill="#c2410c" /><rect x="24" y="0.164825" width="1" height="0.835175" fill="#c2410c" /><rect x="25" y="0.109070" width="1" height="0.890930" fill="#c2410c" /><rect x="26" y="0.226233" width="1" height="0.773767" fill="#c2410c" /><rect x="27" y="0.000000" width="1" height="1.000000" fill="#c2410c" /><rect x="28" y="0.237924" width="1" height="0.762076" fill="#c2410c" /><rect x="29" y="0.271668" width="1" height="0.728332" fill="#c2410c" /><rect x="30" y="0.218354" width="1" height="0.781646" fill="#c2410c" /><rect x="31" y="0.144099" width="1" height="0.855901" fill="#c2410c" /><rect x="32" y="0.099820" width="1" height="0.900180" fill="#c2410c" /><rect x="33" y="0.243705" width="1" height="0.756295" fill="#c2410c" /><rect x="34" y="0.114166" width="1" height="0.885834" fill="#c2410c" /><rect x="35" y="0.141144" width="1" height="0.858856" fill="#c2410c" /><rect x="36" y="0.211588" width="1" height="0.788412" fill="#c2410c" /><rect x="37" y="0.292523" width="1" height="0.707477" fill="#c2410c" /><rect x="38" y="0.164654" width="1" height="0.835346" fill="#c2410c" /><rect x="39" y="0.086716" width="1" height="0.913284" fill="#c2410c" /><rect x="40" y="0.240065" width="1" height="0.759935" fill="#c2410c" /><rect x="41" y="0.001841" width="1" height="0.998159" fill="#c2410c" /><rect x="42" y="0.078537" width="1" height="0.921463" fill="#c2410c" /><rect x="43" y="0.073869" width="1" height="0.926131" fill="#c2410c" /><rect x="44" y="0.219896" width="1" height="0.780104" fill="#c2410c" /><rect x="45" y="0.042523" width="1" height="0.957477" fill="#c2410c" /><rect x="46" y="0.127912" width="1" height="0.872088" fill="#c2410c" /><rect x="47" y="0.000000" width="1" height="1.000000" fill="#c2410c" /><rect x="48" y="0.040767" width="1" height="0.959233" fill="#c2410c" /><rect x="49" y="0.093696" width="1" height="0.906304" fill="#c2410c" /><rect x="50" y="0.133051" width="1" height="0.866949" fill="#c2410c" /><rect x="51" y="0.000000" width="1" height="1.000000" fill="#c2410c" /><rect x="52" y="0.238909" width="1" height="0.761091" fill="#c2410c" /><rect x="53" y="0.279376" width="1" height="0.720624" fill="#c2410c" /><rect x="54" y="0.205507" width="1" height="0.794493" fill="#c2410c" /><rect x="55" y="0.003212" width="1" height="0.996788" fill="#c2410c" /><rect x="56" y="0.081535" width="1" height="0.918465" fill="#c2410c" /><rect x="57" y="0.000000" width="1" height="1.000000" fill="#c2410c" /><rect x="58" y="0.012376" width="1" height="0.987624" fill="#c2410c" /><rect x="59" y="0.000000" width="1" height="1.000000" fill="#c2410c" /><rect x="60" y="0.113995" width="1" height="0.886005" fill="#c2410c" /><rect x="61" y="0.146026" width="1" height="0.853974" fill="#c2410c" /><rect x="62" y="0.133222" width="1" height="0.866778" fill="#c2410c" /><rect x="63" y="0.025308" width="1" height="0.974692" fill="#c2410c" /><rect x="64" y="0.300188" width="1" height="0.699812" fill="#c2410c" /><rect x="65" y="0.346137" width="1" height="0.653863" fill="#c2410c" /><rect x="66" y="0.171120" width="1" height="0.828880" fill="#c2410c" /><rect x="67" y="0.081021" width="1" height="0.918979" fill="#c2410c" /><rect x="68" y="0.194758" width="1" height="0.805242" fill="#c2410c" /><rect x="69" y="0.270512" width="1" height="0.729488" fill="#c2410c" /><rect x="70" y="0.213558" width="1" height="0.786442" fill="#c2410c" /><rect x="71" y="0.065476" width="1" height="0.934524" fill="#c2410c" /><rect x="72" y="0.197114" width="1" height="0.802886" fill="#c2410c" /><rect x="73" y="0.284130" width="1" height="0.715870" fill="#c2410c" /><rect x="74" y="0.067360" width="1" height="0.932640" fill="#c2410c" /><rect x="75" y="0.188635" width="1" height="0.811365" fill="#c2410c" /><rect x="76" y="0.162684" width="1" height="0.837316" fill="#c2410c" /><rect x="77" y="0.039868" width="1" height="0.960132" fill="#c2410c" /><rect x="78" y="0.034772" width="1" height="0.965228" fill="#c2410c" /><rect x="79" y="0.061108" width="1" height="0.938892" fill="#c2410c" /><rect x="80" y="0.125128" width="1" height="0.874872" fill="#c2410c" /><rect x="81" y="0.088857" width="1" height="0.911143" fill="#c2410c" /><rect x="82" y="0.144185" width="1" height="0.855815" fill="#c2410c" /><rect x="83" y="0.000000" width="1" height="1.000000" fill="#c2410c" /><rect x="84" y="0.447328" width="1" height="0.552672" fill="#c2410c" /><rect x="85" y="0.327724" width="1" height="0.672276" fill="#c2410c" /><rect x="86" y="0.392044" width="1" height="0.607956" fill="#c2410c" /><rect x="87" y="0.395683" width="1" height="0.604317" fill="#c2410c" /><rect x="88" y="0.169664" width="1" height="0.830336" fill="#c2410c" /><rect x="89" y="0.391059" width="1" height="0.608941" fill="#c2410c" /><rect x="90" y="0.520384" width="1" height="0.479616" fill="#c2410c" /><rect x="91" y="0.452595" width="1" height="0.547405" fill="#c2410c" /><rect x="92" y="0.381423" width="1" height="0.618577" fill="#c2410c" /><rect x="93" y="0.448099" width="1" height="0.551901" fill="#c2410c" /><rect x="94" y="0.427030" width="1" height="0.572970" fill="#c2410c" /><rect x="95" y="0.374058" width="1" height="0.625942" fill="#c2410c" /><rect x="96" y="0.418080" width="1" height="0.581920" fill="#c2410c" /><rect x="97" y="0.802415" width="1" height="0.197585" fill="#c2410c" /><rect x="98" y="0.955635" width="1" height="0.044365" fill="#c2410c" /><rect x="99" y="0.990365" width="1" height="0.009635" fill="#c2410c" /></svg>