<?xml version="1.0" encoding="UTF-8"?>
<svg xmlns="http://www.w3.org/2000/svg" viewBox="0 0 100 1" preserveAspectRatio="none"><rect x="0" y="0.778583" width="1" height="0.221417" fill="#c2410c" /><rect x="1" y="0.471819" width="1" height="0.528181" fill="#c2410c" /><rect x="2" y="0.494080" width="1" height="0.505920" fill="#c2410c" /><rect x="3" y="0.485340" width="1" height="0.514660" fill="#c2410c" /><rect x="4" y="0.760206" width="1" height="0.239794" fill="#c2410c" /><rect x="5" y="0.540433" width="1" height="0.459567" fill="#c2410c" /><rect x="6" y="0.500803" width="1" height="0.499197" fill="#c2410c" /><rect x="7" y="0.026370" width="1" height="0.973630" fill="#c2410c" /><rect x="8" y="0.063011" width="1" height="0.936989" fill="#c2410c" /><rect x="9" y="0.144100" width="1" height="0.855900" fill="#c2410c" /><rect x="10" y="0.185560" width="1" height="0.814440" fill="#c2410c" /><rect x="11" y="0.224330" width="1" height="0.775670" fill="#c2410c" /><rect x="12" y="0.392971" width="1" height="0.607029" fill="#c2410c" /><rect x="13" y="0.125014" width="1" height="0.874986" fill="#c2410c" /><rect x="14" y="0.524110" width="1" height="0.475890" fill="#c2410c" /><rect x="15" y="0.038770" width="1" height="0.961230" fill="#c2410c" /><rect x="16" y="0.227543" width="1" height="0.772457" fill="#c2410c" /><rect x="17" y="0.000000" width="1" height="1.000000" fill="#c2410c" /><rect x="18" y="0.361745" width="1" height="0.638255" fill="#c2410c" /><rect x="19" y="0.248048" width="1" height="0.751952" fill="#c2410c" /><rect x="20" y="0.227356" width="1" height="0.772644" fill="#c2410c" /><rect x="21" y="0.180667" width="1" height="0.819333" fill="#c2410c" /><rect x="22" y="0.432712" width="1" height="0.567288" fill="#c2410c" /><rect x="23" y="0.000000" width="1" height="1.000000" fill="#c2410c" /><rect x="24" y="0.283009" width="1" height="0.716991" fill="#c2410c" /><rect x="25" y="0.042655" width="1" height="0.957345" fill="#c2410c" /><rect x="26" y="0.260374" width="1" height="0.739626" fill="#c2410c" /><rect x="27" y="0.000000" width="1" height="1.000000" fill="#c2410c" /><rect x="28" y="0.000000" width="1" height="1.000000" fill="#c2410c" /><rect x="29" y="0.236955" width="1" height="0.763045" fill="#c2410c" /><rect x="30" y="0.117208" width="1" height="0.882792" fill="#c2410c" /><rect x="31" y="0.087065" width="1" height="0.912935" fill="#c2410c" /><rect x="32" y="0.000000" width="1" height="1.000000" fill="#c2410c" /><rect x="33" y="0.052142" width="1" height="0.947858" fill="#c2410c" /><rect x="34" y="0.111680" width="1" height="0.888320" fill="#c2410c" /><rect x="35" y="0.416913" width="1" height="0.583087" fill="#c2410c" /><rect x="36" y="0.469391" width="1" height="0.530609" fill="#c2410c" /><rect x="37" y="0.554140" width="1" height="0.445860" fill="#c2410c" /><rect x="38" y="0.353677" width="1" height="0.646323" fill="#c2410c" /><rect x="39" y="0.186158" width="1" height="0.813842" fill="#c2410c" /><rect x="40" y="0.250775" width="1" height="0.749225" fill="#c2410c" /><rect x="41" y="0.095133" width="1" height="0.904867" fill="#c2410c" /><rect x="42" y="0.249094" width="1" height="0.750906" fill="#c2410c" /><rect x="43" y="0.274194" width="1" height="0.725806" fill="#c2410c" /><rect x="44" y="0.210884" width="1" height="0.789116" fill="#c2410c" /><rect x="45" y="0.165652" width="1" height="0.834348" fill="#c2410c" /><rect x="46" y="0.164083" width="1" height="0.835917" fill="#c2410c" /><rect x="47" y="0.298024" width="1" height="0.701976" fill="#c2410c" /><rect x="48" y="0.222164" width="1" height="0.777836" fill="#c2410c" /><rect x="49" y="0.187577" width="1" height="0.812423" fill="#c2410c" /><rect x="50" y="0.199903" width="1" height="0.800097" fill="#c2410c" /><rect x="51" y="0.209390" width="1" height="0.790610" fill="#c2410c" /><rect x="52" y="0.658649" width="1" height="0.341351" fill="#c2410c" /><rect x="53" y="0.528779" width="1" height="0.471221" fill="#c2410c" /><rect x="54" y="0.453031" width="1" height="0.546969" fill="#c2410c" /><rect x="55" y="0.623912" width="1" height="0.376088" fill="#c2410c" /><rect x="56" y="0.411609" width="1" height="0.588391" fill="#c2410c" /><rect x="57" y="0.477347" width="1" height="0.522653" fill="#c2410c" /><rect x="58" y="0.547828" width="1" height="0.452172" fill="#c2410c" /><rect x="59" y="0.530497" width="1" height="0.469503" fill="#c2410c" /><rect x="60" y="0.120644" width="1" height="0.879356" fill="#c2410c" /><rect x="61" y="0.200911" width="1" height="0.799089" fill="#c2410c" /><rect x="62" y="0.096702" width="1" height="0.903298" fill="#c2410c" /><rect x="63" y="0.514922" width="1" height="0.485078" fill="#c2410c" /><rect x="64" y="0.195869" width="1" height="0.804131" fill="#c2410c" /><rect x="65" y="0.502932" width="1" height="0.497068" fill="#c2410c" /><rect x="66" y="0.108729" width="1" height="0.891271" fill="#c2410c" /><rect x="67" y="0.097113" width="1" height="0.902887" fill="#c2410c" /><rect x="68" y="0.585627" width="1" height="0.414373" fill="#c2410c" /><rect x="69" y="0.235125" width="1" height="0.764875" fill="#c2410c" /><rect x="70" y="0.328689" width="1" height="0.671311" fill="#c2410c" /><rect x="71" y="0.243865" width="1" height="0.756135" fill="#c2410c" /><rect x="72" y="0.429425" width="1" height="0.570575" fill="#c2410c" /><rect x="73" y="0.081164" width="1" height="0.918836" fill="#c2410c" /><rect x="74" y="0.032271" width="1" height="0.967729" fill="#c2410c" /><rect x="75" y="0.234527" width="1" height="0.765473" fill="#c2410c" /><rect x="76" y="0.103238" width="1" height="0.896762" fill="#c2410c" /><rect x="77" y="0.418519" width="1" height="0.581481" fill="#c2410c" /><rect x="78" y="0.092369" width="1" height="0.907631" fill="#c2410c" /><rect x="79" y="0.304374" width="1" height="0.695626" fill="#c2410c" /><rect x="80" y="0.622381" width="1" height="0.377619" fill="#c2410c" /><rect x="81" y="0.308072" width="1" height="0.691928" fill="#c2410c" /><rect x="82" y="0.357114" width="1" height="0.642886" fill="#c2410c" /><rect x="83" y="0.615097" width="1" height="0.384903" fill="#c2410c" /><rect x="84" y="0.217570" width="1" height="0.782430" fill="#c2410c" /><rect x="85" y="0.353117" width="1" height="0.646883" fill="#c2410c" /><rect x="86" y="0.042132" width="1" height="0.957868" fill="#c2410c" /><rect x="87" y="0.249542" width="1" height="0.750458" fill="#c2410c" /><rect x="88" y="0.261308" width="1" height="0.738692" fill="#c2410c" /><rect x="89" y="0.000000" width="1" height="1.000000" fill="#c2410c" /><rect x="90" y="0.266836" width="1" height="0.733164" fill="#c2410c" /><rect x="91" y="0.330258" width="1" height="0.669742" fill="#c2410c" /><rect x="92" y="0.357898" width="1" height="0.642102" fill="#c2410c" /><rect x="93" y="0.585702" width="1" height="0.414298" fill="#c2410c" /><rect x="94" y="0.532327" width="1" height="0.467673" fill="#c2410c" /><rect x="95" y="0.535764" width="1" height="0.464236" fill="#c2410c" /><rect x="96" y="0.842565" width="1" height="0.157435" fill="#c2410c" /><rect x="97" y="0.548538" width="1" height="0.451462" fill="#c2410c" /><rect x="98" y="0.999328" width="1" height="0.000672" fill="#c2410c" /><rect x="99" y="0.999888" width="1" height="0.000112" fill="#c2410c" /></svg>