<?xml version="1.0" encoding="UTF-8"?>
<svg xmlns="http://www.w3.org/2000/svg" viewBox="0 0 100 1" preserveAspectRatio="none"><rect x="0" y="0.684668" width="1" height="0.315332" fill="#c2410c" /><rect x="1" y="0.712457" width="1" height="0.287543" fill="#c2410c" /><rect x="2" y="0.672137" width="1" height="0.327863" fill="#c2410c" /><rect x="3" y="0.675558" width="1" height="0.324442" fill="#c2410c" /><rect x="4" y="0.617711" width="1" height="0.382289" fill="#c2410c" /><rect x="5" y="0.598416" width="1" height="0.401584" fill="#c2410c" /><rect x="6" y="0.629511" width="1" height="0.370489" fill="#c2410c" /><rect x="7" y="0.641465" width="1" height="0.358535" fill="#c2410c" /><rect x="8" y="0.456817" width="1" height="0.543183" fill="#c2410c" /><rect x="9" y="0.281700" width="1" height="0.718300" fill="#c2410c" /><rect x="10" y="0.644771" width="1" height="0.355229" fill="#c2410c" /><rect x="11" y="0.530653" width="1" height="0.469347" fill="#c2410c" /><rect x="12" y="0.617558" width="1" height="0.382442" fill="#c2410c" /><rect x="13" y="0.523773" width="1" height="0.476227" fill="#c2410c" /><rect x="14" y="0.470039" width="1" height="0.529961" fill="#c2410c" /><rect x="15" y="0.030980" width="1" height="0.969020" fill="#c2410c" /><rect x="16" y="0.036246" width="1" height="0.963754" fill="#c2410c" /><rect x="17" y="0.232310" width="1" height="0.767690" fill="#c2410c" /><rect x="18" y="0.032325" width="1" height="0.967675" fill="#c2410c" /><rect x="19" y="0.138563" width="1" height="0.861437" fill="#c2410c" /><rect x="20" y="0.201061" width="1" height="0.798939" fill="#c2410c" /><rect x="21" y="0.015797" width="1" height="0.984203" fill="#c2410c" /><rect x="22" y="0.048737" width="1" height="0.951263" fill="#c2410c" /><rect x="23" y="0.033862" width="1" height="0.966138" fill="#c2410c" /><rect x="24" y="0.033286" width="1" height="0.966714" fill="#c2410c" /><rect x="25" y="0.019257" width="1" height="0.980743" fill="#c2410c" /><rect x="26" y="0.057270" width="1" height="0.942730" fill="#c2410c" /><rect x="27" y="0.060845" width="1" height="0.939155" fill="#c2410c" /><rect x="28" y="0.040704" width="1" height="0.959296" fill="#c2410c" /><rect x="29" y="0.038975" width="1" height="0.961025" fill="#c2410c" /><rect x="30" y="0.273975" width="1" height="0.726025" fill="#c2410c" /><rect x="31" y="0.035938" width="1" height="0.964062" fill="#c2410c" /><rect x="32" y="0.080332" width="1" height="0.919668" fill="#c2410c" /><rect x="33" y="0.056502" width="1" height="0.943498" fill="#c2410c" /><rect x="34" y="0.067072" width="1" height="0.932928" fill="#c2410c" /><rect x="35" y="0.028943" width="1" height="0.971057" fill="#c2410c" /><rect x="36" y="0.045124" width="1" height="0.954876" fill="#c2410c" /><rect x="37" y="0.053888" width="1" height="0.946112" fill="#c2410c" /><rect x="38" y="0.060307" width="1" height="0.939693" fill="#c2410c" /><rect x="39" y="0.000000" width="1" height="1.000000" fill="#c2410c" /><rect x="40" y="0.137295" width="1" height="0.862705" fill="#c2410c" /><rect x="41" y="0.023946" width="1" height="0.976054" fill="#c2410c" /><rect x="42" y="0.049506" width="1" height="0.950494" fill="#c2410c" /><rect x="43" y="0.179575" width="1" height="0.820425" fill="#c2410c" /><rect x="44" y="0.000000" width="1" height="1.000000" fill="#c2410c" /><rect x="45" y="0.024753" width="1" height="0.975247" fill="#c2410c" /><rect x="46" y="0.030634" width="1" height="0.969366" fill="#c2410c" /><rect x="47" y="0.058154" width="1" height="0.941846" fill="#c2410c" /><rect x="48" y="0.138371" width="1" height="0.861629" fill="#c2410c" /><rect x="49" y="0.289926" width="1" height="0.710074" fill="#c2410c" /><rect x="50" y="0.079410" width="1" height="0.920590" fill="#c2410c" /><rect x="51" y="0.012838" width="1" height="0.987162" fill="#c2410c" /><rect x="52" y="0.019449" width="1" height="0.980551" fill="#c2410c" /><rect x="53" y="0.114848" width="1" height="0.885152" fill="#c2410c" /><rect x="54" y="0.101472" width="1" height="0.898528" fill="#c2410c" /><rect x="55" y="0.003036" width="1" height="0.996964" fill="#c2410c" /><rect x="56" y="0.015567" width="1" height="0.984433" fill="#c2410c" /><rect x="57" y="0.165007" width="1" height="0.834993" fill="#c2410c" /><rect x="58" y="0.105162" width="1" height="0.894838" fill="#c2410c" /><rect x="59" y="0.128954" width="1" height="0.871046" fill="#c2410c" /><rect x="60" y="0.027905" width="1" height="0.972095" fill="#c2410c" /><rect x="61" y="0.000000" width="1" height="1.000000" fill="#c2410c" /><rect x="62" y="0.017220" width="1" height="0.982780" fill="#c2410c" /><rect x="63" y="0.013376" width="1" height="0.986624" fill="#c2410c" /><rect x="64" y="0.203444" width="1" height="0.796556" fill="#c2410c" /><rect x="65" y="0.018142" width="1" height="0.981858" fill="#c2410c" /><rect x="66" y="0.061652" width="1" height="0.938348" fill="#c2410c" /><rect x="67" y="0.134258" width="1" height="0.865742" fill="#c2410c" /><rect x="68" y="0.056578" width="1" height="0.943422" fill="#c2410c" /><rect x="69" y="0.043126" width="1" height="0.956874" fill="#c2410c" /><rect x="70" y="0.125495" width="1" height="0.874505" fill="#c2410c" /><rect x="71" y="0.011377" width="1" height="0.988623" fill="#c2410c" /><rect x="72" y="0.106546" width="1" height="0.893454" fill="#c2410c" /><rect x="73" y="0.152016" width="1" height="0.847984" fill="#c2410c" /><rect x="74" y="0.042395" width="1" height="0.957605" fill="#c2410c" /><rect x="75" y="0.117423" width="1" height="0.882577" fill="#c2410c" /><rect x="76" y="0.039320" width="1" height="0.960680" fill="#c2410c" /><rect x="77" y="0.040128" width="1" height="0.959872" fill="#c2410c" /><rect x="78" y="0.009494" width="1" height="0.990506" fill="#c2410c" /><rect x="79" y="0.000000" width="1" height="1.000000" fill="#c2410c" /><rect x="80" y="0.245647" width="1" height="0.754353" fill="#c2410c" /><rect x="81" y="0.097398" width="1" height="0.902602" fill="#c2410c" /><rect x="82" y="0.201868" width="1" height="0.798132" fill="#c2410c" /><rect x="83" y="0.047315" width="1" height="0.952685" fill="#c2410c" /><rect x="84" y="0.060499" width="1" height="0.939501" fill="#c2410c" /><rect x="85" y="0.047930" width="1" height="0.952070" fill="#c2410c" /><rect x="86" y="0.050236" width="1" height="0.949764" fill="#c2410c" /><rect x="87" y="0.122997" width="1" height="0.877003" fill="#c2410c" /><rect x="88" y="0.040935" width="1" height="0.959065" fill="#c2410c" /><rect x="89" y="0.085752" width="1" height="0.914248" fill="#c2410c" /><rect x="90" y="0.044586" width="1" height="0.955414" fill="#c2410c" /><rect x="91" y="0.197794" width="1" height="0.802206" fill="#c2410c" /><rect x="92" y="0.058769" width="1" height="0.941231" fill="#c2410c" /><rect x="93" y="0.000692" width="1" height="0.999308" fill="#c2410c" /><rect x="94" y="0.000000" width="1" height="1.000000" fill="#c2410c" /><rect x="95" y="0.000000" width="1" height="1.000000" fill="#c2410c" /><rect x="96" y="0.079102" width="1" height="0.920898" fill="#c2410c" /><rect x="97" y="0.840258" width="1" height="0.159742" fill="#c2410c" /><rect x="98" y="0.993351" width="1" height="0.006649" fill="#c2410c" /><rect x="99" y="0.999270" width="1" height="0.000730" fill="#c2410c" /></svg>