<?xml version="1.0" encoding="UTF-8"?>
<svg xmlns="http://www.w3.org/2000/svg" viewBox="0 0 100 1" preserveAspectRatio="none"><rect x="0" y="0.068195" width="1" height="0.931805" fill="#c2410c" /><rect x="1" y="0.012604" width="1" height="0.987396" fill="#c2410c" /><rect x="2" y="0.020128" width="1" height="0.979872" fill="#c2410c" /><rect x="3" y="0.284494" width="1" height="0.715506" fill="#c2410c" /><rect x="4" y="0.011874" width="1" height="0.988126" fill="#c2410c" /><rect x="5" y="0.000000" width="1" height="1.000000" fill="#c2410c" /><rect x="6" y="0.207854" width="1" height="0.792146" fill="#c2410c" /><rect x="7" y="0.081148" width="1" height="0.918852" fill="#c2410c" /><rect x="8" y="0.050035" width="1" height="0.949965" fill="#c2410c" /><rect x="9" y="0.209950" width="1" height="0.790050" fill="#c2410c" /><rect x="10" y="0.123246" width="1" height="0.876754" fill="#c2410c" /><rect x="11" y="0.000000" width="1" height="1.000000" fill="#c2410c" /><rect x="12" y="0.012128" width="1" height="0.987872" fill="#c2410c" /><rect x="13" y="0.171439" width="1" height="0.828561" fill="#c2410c" /><rect x="14" y="0.253667" width="1" height="0.746333" fill="#c2410c" /><rect x="15" y="0.039241" width="1" height="0.960759" fill="#c2410c" /><rect x="16" y="0.023684" width="1" height="0.976316" fill="#c2410c" /><rect x="17" y="0.000000" width="1" height="1.000000" fill="#c2410c" /><rect x="18" y="0.241253" width="1" height="0.758747" fill="#c2410c" /><rect x="19" y="0.215284" width="1" height="0.784716" fill="#c2410c" /><rect x="20" y="0.008096" width="1" height="0.991904" fill="#c2410c" /><rect x="21" y="0.228967" width="1" height="0.771033" fill="#c2410c" /><rect x="22" y="0.175694" width="1" height="0.824306" fill="#c2410c" /><rect x="23" y="0.009080" width="1" height="0.990920" fill="#c2410c" /><rect x="24" y="0.000381" width="1" height="0.999619" fill="#c2410c" /><rect x="25" y="0.032700" width="1" height="0.967300" fill="#c2410c" /><rect x="26" y="0.024509" width="1" height="0.975491" fill="#c2410c" /><rect x="27" y="0.132707" width="1" height="0.867293" fill="#c2410c" /><rect x="28" y="0.005397" width="1" height="0.994603" fill="#c2410c" /><rect x="29" y="0.162137" width="1" height="0.837863" fill="#c2410c" /><rect x="30" y="0.208458" width="1" height="0.791542" fill="#c2410c" /><rect x="31" y="0.047495" width="1" height="0.952505" fill="#c2410c" /><rect x="32" y="0.081275" width="1" height="0.918725" fill="#c2410c" /><rect x="33" y="0.020192" width="1" height="0.979808" fill="#c2410c" /><rect x="34" y="0.007016" width="1" height="0.992984" fill="#c2410c" /><rect x="35" y="0.032923" width="1" height="0.967077" fill="#c2410c" /><rect x="36" y="0.026002" width="1" height="0.973998" fill="#c2410c" /><rect x="37" y="0.223062" width="1" height="0.776938" fill="#c2410c" /><rect x="38" y="0.033272" width="1" height="0.966728" fill="#c2410c" /><rect x="39" y="0.018700" width="1" height="0.981300" fill="#c2410c" /><rect x="40" y="0.011207" width="1" height="0.988793" fill="#c2410c" /><rect x="41" y="0.085720" width="1" height="0.914280" fill="#c2410c" /><rect x="42" y="0.180996" width="1" height="0.819004" fill="#c2410c" /><rect x="43" y="0.342244" width="1" height="0.657756" fill="#c2410c" /><rect x="44" y="0.000000" width="1" height="1.000000" fill="#c2410c" /><rect x="45" y="0.323925" width="1" height="0.676075" fill="#c2410c" /><rect x="46" y="0.035939" width="1" height="0.964061" fill="#c2410c" /><rect x="47" y="0.098165" width="1" height="0.901835" fill="#c2410c" /><rect x="48" y="0.003207" width="1" height="0.996793" fill="#c2410c" /><rect x="49" y="0.121405" width="1" height="0.878595" fill="#c2410c" /><rect x="50" y="0.015874" width="1" height="0.984126" fill="#c2410c" /><rect x="51" y="0.034955" width="1" height="0.965045" fill="#c2410c" /><rect x="52" y="0.015779" width="1" height="0.984221" fill="#c2410c" /><rect x="53" y="0.206743" width="1" height="0.793257" fill="#c2410c" /><rect x="54" y="0.214331" width="1" height="0.785669" fill="#c2410c" /><rect x="55" y="0.025271" width="1" height="0.974729" fill="#c2410c" /><rect x="56" y="0.020573" width="1" height="0.979427" fill="#c2410c" /><rect x="57" y="0.176202" width="1" height="0.823798" fill="#c2410c" /><rect x="58" y="0.151121" width="1" height="0.848879" fill="#c2410c" /><rect x="59" y="0.098133" width="1" height="0.901867" fill="#c2410c" /><rect x="60" y="0.018033" width="1" height="0.981967" fill="#c2410c" /><rect x="61" y="0.235571" width="1" height="0.764429" fill="#c2410c" /><rect x="62" y="0.235285" width="1" height="0.764715" fill="#c2410c" /><rect x="63" y="0.274494" width="1" height="0.725506" fill="#c2410c" /><rect x="64" y="0.016541" width="1" height="0.983459" fill="#c2410c" /><rect x="65" y="0.171947" width="1" height="0.828053" fill="#c2410c" /><rect x="66" y="0.149502" width="1" height="0.850498" fill="#c2410c" /><rect x="67" y="0.000000" width="1" height="1.000000" fill="#c2410c" /><rect x="68" y="0.008889" width="1" height="0.991111" fill="#c2410c" /><rect x="69" y="0.091847" width="1" height="0.908153" fill="#c2410c" /><rect x="70" y="0.200298" width="1" height="0.799702" fill="#c2410c" /><rect x="71" y="0.035494" width="1" height="0.964506" fill="#c2410c" /><rect x="72" y="0.021049" width="1" height="0.978951" fill="#c2410c" /><rect x="73" y="0.259826" width="1" height="0.740174" fill="#c2410c" /><rect x="74" y="0.025081" width="1" height="0.974919" fill="#c2410c" /><rect x="75" y="0.105784" width="1" height="0.894216" fill="#c2410c" /><rect x="76" y="0.016636" width="1" height="0.983364" fill="#c2410c" /><rect x="77" y="0.017715" width="1" height="0.982285" fill="#c2410c" /><rect x="78" y="0.174202" width="1" height="0.825798" fill="#c2410c" /><rect x="79" y="0.340276" width="1" height="0.659724" fill="#c2410c" /><rect x="80" y="0.173408" width="1" height="0.826592" fill="#c2410c" /><rect x="81" y="0.036574" width="1" height="0.963426" fill="#c2410c" /><rect x="82" y="0.141787" width="1" height="0.858213" fill="#c2410c" /><rect x="83" y="0.184043" width="1" height="0.815957" fill="#c2410c" /><rect x="84" y="0.055210" width="1" height="0.944790" fill="#c2410c" /><rect x="85" y="0.037748" width="1" height="0.962252" fill="#c2410c" /><rect x="86" y="0.149438" width="1" height="0.850562" fill="#c2410c" /><rect x="87" y="0.220395" width="1" height="0.779605" fill="#c2410c" /><rect x="88" y="0.130611" width="1" height="0.869389" fill="#c2410c" /><rect x="89" y="0.272811" width="1" height="0.727189" fill="#c2410c" /><rect x="90" y="0.000000" width="1" height="1.000000" fill="#c2410c" /><rect x="91" y="0.001587" width="1" height="0.998413" fill="#c2410c" /><rect x="92" y="0.017938" width="1" height="0.982062" fill="#c2410c" /><rect x="93" y="0.125437" width="1" height="0.874563" fill="#c2410c" /><rect x="94" y="0.191758" width="1" height="0.808242" fill="#c2410c" /><rect x="95" y="0.069147" width="1" height="0.930853" fill="#c2410c" /><rect x="96" y="0.077021" width="1" height="0.922979" fill="#c2410c" /><rect x="97" y="0.254080" width="1" height="0.745920" fill="#c2410c" /><rect x="98" y="0.988190" width="1" height="0.011810" fill="#c2410c" /><rect x="99" y="0.999175" width="1" height="0.000825" fill="#c2410c" /></svg>