<?xml version="1.0" encoding="UTF-8"?>
<svg xmlns="http://www.w3.org/2000/svg" viewBox="0 0 100 1" preserveAspectRatio="none"><rect x="0" y="0.620284" width="1" height="0.379716" fill="#c2410c" /><rect x="1" y="0.725138" width="1" height="0.274862" fill="#c2410c" /><rect x="2" y="0.771089" width="1" height="0.228911" fill="#c2410c" /><rect x="3" y="0.760277" width="1" height="0.239723" fill="#c2410c" /><rect x="4" y="0.636502" width="1" height="0.363498" fill="#c2410c" /><rect x="5" y="0.738540" width="1" height="0.261460" fill="#c2410c" /><rect x="6" y="0.743946" width="1" height="0.256054" fill="#c2410c" /><rect x="7" y="0.677441" width="1" height="0.322559" fill="#c2410c" /><rect x="8" y="0.781113" width="1" height="0.218887" fill="#c2410c" /><rect x="9" y="0.715846" width="1" height="0.284154" fill="#c2410c" /><rect x="10" y="0.777058" width="1" height="0.222942" fill="#c2410c" /><rect x="11" y="0.778353" width="1" height="0.221647" fill="#c2410c" /><rect x="12" y="0.838721" width="1" height="0.161279" fill="#c2410c" /><rect x="13" y="0.193547" width="1" height="0.806453" fill="#c2410c" /><rect x="14" y="0.156380" width="1" height="0.843620" fill="#c2410c" /><rect x="15" y="0.258475" width="1" height="0.741525" fill="#c2410c" /><rect x="16" y="0.152213" width="1" height="0.847787" fill="#c2410c" /><rect x="17" y="0.197094" width="1" height="0.802906" fill="#c2410c" /><rect x="18" y="0.070560" width="1" height="0.929440" fill="#c2410c" /><rect x="19" y="0.178962" width="1" height="0.821038" fill="#c2410c" /><rect x="20" y="0.103559" width="1" height="0.896441" fill="#c2410c" /><rect x="21" y="0.263318" width="1" height="0.736682" fill="#c2410c" /><rect x="22" y="0.183804" width="1" height="0.816196" fill="#c2410c" /><rect x="23" y="0.134080" width="1" height="0.865920" fill="#c2410c" /><rect x="24" y="0.141570" width="1" height="0.858430" fill="#c2410c" /><rect x="25" y="0.190506" width="1" height="0.809494" fill="#c2410c" /><rect x="26" y="0.176315" width="1" height="0.823685" fill="#c2410c" /><rect x="27" y="0.169220" width="1" height="0.830780" fill="#c2410c" /><rect x="28" y="0.100124" width="1" height="0.899876" fill="#c2410c" /><rect x="29" y="0.196700" width="1" height="0.803300" fill="#c2410c" /><rect x="30" y="0.154071" width="1" height="0.845929" fill="#c2410c" /><rect x="31" y="0.158971" width="1" height="0.841029" fill="#c2410c" /><rect x="32" y="0.040151" width="1" height="0.959849" fill="#c2410c" /><rect x="33" y="0.032549" width="1" height="0.967451" fill="#c2410c" /><rect x="34" y="0.068701" width="1" height="0.931299" fill="#c2410c" /><rect x="35" y="0.116173" width="1" height="0.883827" fill="#c2410c" /><rect x="36" y="0.355614" width="1" height="0.644386" fill="#c2410c" /><rect x="37" y="0.130927" width="1" height="0.869073" fill="#c2410c" /><rect x="38" y="0.197545" width="1" height="0.802455" fill="#c2410c" /><rect x="39" y="0.117130" width="1" height="0.882870" fill="#c2410c" /><rect x="40" y="0.091790" width="1" height="0.908210" fill="#c2410c" /><rect x="41" y="0.152157" width="1" height="0.847843" fill="#c2410c" /><rect x="42" y="0.054454" width="1" height="0.945546" fill="#c2410c" /><rect x="43" y="0.094943" width="1" height="0.905057" fill="#c2410c" /><rect x="44" y="0.054004" width="1" height="0.945996" fill="#c2410c" /><rect x="45" y="0.102883" width="1" height="0.897117" fill="#c2410c" /><rect x="46" y="0.004505" width="1" height="0.995495" fill="#c2410c" /><rect x="47" y="0.203683" width="1" height="0.796317" fill="#c2410c" /><rect x="48" y="0.172148" width="1" height="0.827852" fill="#c2410c" /><rect x="49" y="0.000000" width="1" height="1.000000" fill="#c2410c" /><rect x="50" y="0.093761" width="1" height="0.906239" fill="#c2410c" /><rect x="51" y="0.026917" width="1" height="0.973083" fill="#c2410c" /><rect x="52" y="0.131208" width="1" height="0.868792" fill="#c2410c" /><rect x="53" y="0.160660" width="1" height="0.839340" fill="#c2410c" /><rect x="54" y="0.137684" width="1" height="0.862316" fill="#c2410c" /><rect x="55" y="0.093929" width="1" height="0.906071" fill="#c2410c" /><rect x="56" y="0.035364" width="1" height="0.964636" fill="#c2410c" /><rect x="57" y="0.089988" width="1" height="0.910012" fill="#c2410c" /><rect x="58" y="0.167643" width="1" height="0.832357" fill="#c2410c" /><rect x="59" y="0.241750" width="1" height="0.758250" fill="#c2410c" /><rect x="60" y="0.056313" width="1" height="0.943687" fill="#c2410c" /><rect x="61" y="0.000000" width="1" height="1.000000" fill="#c2410c" /><rect x="62" y="0.033957" width="1" height="0.966043" fill="#c2410c" /><rect x="63" y="0.106093" width="1" height="0.893907" fill="#c2410c" /><rect x="64" y="0.037335" width="1" height="0.962665" fill="#c2410c" /><rect x="65" y="0.062000" width="1" height="0.938000" fill="#c2410c" /><rect x="66" y="0.134024" width="1" height="0.865976" fill="#c2410c" /><rect x="67" y="0.062901" width="1" height="0.937099" fill="#c2410c" /><rect x="68" y="0.096576" width="1" height="0.903424" fill="#c2410c" /><rect x="69" y="0.181045" width="1" height="0.818955" fill="#c2410c" /><rect x="70" y="0.021117" width="1" height="0.978883" fill="#c2410c" /><rect x="71" y="0.050963" width="1" height="0.949037" fill="#c2410c" /><rect x="72" y="0.000000" width="1" height="1.000000" fill="#c2410c" /><rect x="73" y="0.019315" width="1" height="0.980685" fill="#c2410c" /><rect x="74" y="0.075346" width="1" height="0.924654" fill="#c2410c" /><rect x="75" y="0.065717" width="1" height="0.934283" fill="#c2410c" /><rect x="76" y="0.040939" width="1" height="0.959061" fill="#c2410c" /><rect x="77" y="0.097252" width="1" height="0.902748" fill="#c2410c" /><rect x="78" y="0.087285" width="1" height="0.912715" fill="#c2410c" /><rect x="79" y="0.000000" width="1" height="1.000000" fill="#c2410c" /><rect x="80" y="0.214270" width="1" height="0.785730" fill="#c2410c" /><rect x="81" y="0.048147" width="1" height="0.951853" fill="#c2410c" /><rect x="82" y="0.039081" width="1" height="0.960919" fill="#c2410c" /><rect x="83" y="0.000000" width="1" height="1.000000" fill="#c2410c" /><rect x="84" y="0.039926" width="1" height="0.960074" fill="#c2410c" /><rect x="85" y="0.075234" width="1" height="0.924766" fill="#c2410c" /><rect x="86" y="0.025284" width="1" height="0.974716" fill="#c2410c" /><rect x="87" y="0.004167" width="1" height="0.995833" fill="#c2410c" /><rect x="88" y="0.189943" width="1" height="0.810057" fill="#c2410c" /><rect x="89" y="0.078838" width="1" height="0.921162" fill="#c2410c" /><rect x="90" y="0.069884" width="1" height="0.930116" fill="#c2410c" /><rect x="91" y="0.164489" width="1" height="0.835511" fill="#c2410c" /><rect x="92" y="0.011826" width="1" height="0.988174" fill="#c2410c" /><rect x="93" y="0.079401" width="1" height="0.920599" fill="#c2410c" /><rect x="94" y="0.209877" width="1" height="0.790123" fill="#c2410c" /><rect x="95" y="0.000000" width="1" height="1.000000" fill="#c2410c" /><rect x="96" y="0.008503" width="1" height="0.991497" fill="#c2410c" /><rect x="97" y="0.099223" width="1" height="0.900777" fill="#c2410c" /><rect x="98" y="0.773398" width="1" height="0.226602" fill="#c2410c" /><rect x="99" y="0.998029" width="1" height="0.001971" fill="#c2410c" /></svg>