<?xml version="1.0" encoding="UTF-8"?>
<svg xmlns="http://www.w3.org/2000/svg" viewBox="0 0 100 1" preserveAspectRatio="none"><rect x="0" y="0.361117" width="1" height="0.638883" fill="#c2410c" /><rect x="1" y="0.294733" width="1" height="0.705267" fill="#c2410c" /><rect x="2" y="0.340750" width="1" height="0.659250" fill="#c2410c" /><rect x="3" y="0.349794" width="1" height="0.650206" fill="#c2410c" /><rect x="4" y="0.442804" width="1" height="0.557196" fill="#c2410c" /><rect x="5" y="0.352977" width="1" height="0.647023" fill="#c2410c" /><rect x="6" y="0.402359" width="1" height="0.597641" fill="#c2410c" /><rect x="7" y="0.297735" width="1" height="0.702265" fill="#c2410c" /><rect x="8" y="0.362383" width="1" height="0.637617" fill="#c2410c" /><rect x="9" y="0.351241" width="1" height="0.648759" fill="#c2410c" /><rect x="10" y="0.143875" width="1" height="0.856125" fill="#c2410c" /><rect x="11" y="0.231930" width="1" height="0.768070" fill="#c2410c" /><rect x="12" y="0.000000" width="1" height="1.000000" fill="#c2410c" /><rect x="13" y="0.227625" width="1" height="0.772375" fill="#c2410c" /><rect x="14" y="0.213190" width="1" height="0.786810" fill="#c2410c" /><rect x="15" y="0.151436" width="1" height="0.848564" fill="#c2410c" /><rect x="16" y="0.296939" width="1" height="0.703061" fill="#c2410c" /><rect x="17" y="0.208415" width="1" height="0.791585" fill="#c2410c" /><rect x="18" y="0.247703" width="1" height="0.752297" fill="#c2410c" /><rect x="19" y="0.211381" width="1" height="0.788619" fill="#c2410c" /><rect x="20" y="0.209970" width="1" height="0.790030" fill="#c2410c" /><rect x="21" y="0.414478" width="1" height="0.585522" fill="#c2410c" /><rect x="22" y="0.204363" width="1" height="0.795637" fill="#c2410c" /><rect x="23" y="0.347117" width="1" height="0.652883" fill="#c2410c" /><rect x="24" y="0.411946" width="1" height="0.588054" fill="#c2410c" /><rect x="25" y="0.103828" width="1" height="0.896172" fill="#c2410c" /><rect x="26" y="0.336227" width="1" height="0.663773" fill="#c2410c" /><rect x="27" y="0.164605" width="1" height="0.835395" fill="#c2410c" /><rect x="28" y="0.076261" width="1" height="0.923739" fill="#c2410c" /><rect x="29" y="0.197598" width="1" height="0.802402" fill="#c2410c" /><rect x="30" y="0.000000" width="1" height="1.000000" fill="#c2410c" /><rect x="31" y="0.155814" width="1" height="0.844186" fill="#c2410c" /><rect x="32" y="0.014905" width="1" height="0.985095" fill="#c2410c" /><rect x="33" y="0.260039" width="1" height="0.739961" fill="#c2410c" /><rect x="34" y="0.256313" width="1" height="0.743687" fill="#c2410c" /><rect x="35" y="0.188879" width="1" height="0.811121" fill="#c2410c" /><rect x="36" y="0.235511" width="1" height="0.764489" fill="#c2410c" /><rect x="37" y="0.143333" width="1" height="0.856667" fill="#c2410c" /><rect x="38" y="0.055459" width="1" height="0.944541" fill="#c2410c" /><rect x="39" y="0.055676" width="1" height="0.944324" fill="#c2410c" /><rect x="40" y="0.000000" width="1" height="1.000000" fill="#c2410c" /><rect x="41" y="0.286557" width="1" height="0.713443" fill="#c2410c" /><rect x="42" y="0.000000" width="1" height="1.000000" fill="#c2410c" /><rect x="43" y="0.381629" width="1" height="0.618371" fill="#c2410c" /><rect x="44" y="0.278887" width="1" height="0.721113" fill="#c2410c" /><rect x="45" y="0.032993" width="1" height="0.967007" fill="#c2410c" /><rect x="46" y="0.210585" width="1" height="0.789415" fill="#c2410c" /><rect x="47" y="0.001194" width="1" height="0.998806" fill="#c2410c" /><rect x="48" y="0.076405" width="1" height="0.923595" fill="#c2410c" /><rect x="49" y="0.050177" width="1" height="0.949823" fill="#c2410c" /><rect x="50" y="0.000000" width="1" height="1.000000" fill="#c2410c" /><rect x="51" y="0.150821" width="1" height="0.849179" fill="#c2410c" /><rect x="52" y="0.000000" width="1" height="1.000000" fill="#c2410c" /><rect x="53" y="0.257579" width="1" height="0.742421" fill="#c2410c" /><rect x="54" y="0.291983" width="1" height="0.708017" fill="#c2410c" /><rect x="55" y="0.102995" width="1" height="0.897005" fill="#c2410c" /><rect x="56" y="0.266442" width="1" height="0.733558" fill="#c2410c" /><rect x="57" y="0.074271" width="1" height="0.925729" fill="#c2410c" /><rect x="58" y="0.231351" width="1" height="0.768649" fill="#c2410c" /><rect x="59" y="0.012264" width="1" height="0.987736" fill="#c2410c" /><rect x="60" y="0.167680" width="1" height="0.832320" fill="#c2410c" /><rect x="61" y="0.264308" width="1" height="0.735692" fill="#c2410c" /><rect x="62" y="0.107988" width="1" height="0.892012" fill="#c2410c" /><rect x="63" y="0.243000" width="1" height="0.757000" fill="#c2410c" /><rect x="64" y="0.088525" width="1" height="0.911475" fill="#c2410c" /><rect x="65" y="0.089682" width="1" height="0.910318" fill="#c2410c" /><rect x="66" y="0.352905" width="1" height="0.647095" fill="#c2410c" /><rect x="67" y="0.094747" width="1" height="0.905253" fill="#c2410c" /><rect x="68" y="0.363107" width="1" height="0.636893" fill="#c2410c" /><rect x="69" y="0.201758" width="1" height="0.798242" fill="#c2410c" /><rect x="70" y="0.415925" width="1" height="0.584075" fill="#c2410c" /><rect x="71" y="0.418421" width="1" height="0.581579" fill="#c2410c" /><rect x="72" y="0.440381" width="1" height="0.559619" fill="#c2410c" /><rect x="73" y="0.492692" width="1" height="0.507308" fill="#c2410c" /><rect x="74" y="0.497649" width="1" height="0.502351" fill="#c2410c" /><rect x="75" y="0.489292" width="1" height="0.510708" fill="#c2410c" /><rect x="76" y="0.452319" width="1" height="0.547681" fill="#c2410c" /><rect x="77" y="0.553035" width="1" height="0.446965" fill="#c2410c" /><rect x="78" y="0.446277" width="1" height="0.553723" fill="#c2410c" /><rect x="79" y="0.436256" width="1" height="0.563744" fill="#c2410c" /><rect x="80" y="0.473229" width="1" height="0.526771" fill="#c2410c" /><rect x="81" y="0.377071" width="1" height="0.622929" fill="#c2410c" /><rect x="82" y="0.536683" width="1" height="0.463317" fill="#c2410c" /><rect x="83" y="0.523660" width="1" height="0.476340" fill="#c2410c" /><rect x="84" y="0.386079" width="1" height="0.613921" fill="#c2410c" /><rect x="85" y="0.467730" width="1" height="0.532270" fill="#c2410c" /><rect x="86" y="0.398705" width="1" height="0.601295" fill="#c2410c" /><rect x="87" y="0.364445" width="1" height="0.635555" fill="#c2410c" /><rect x="88" y="0.519644" width="1" height="0.480356" fill="#c2410c" /><rect x="89" y="0.356378" width="1" height="0.643622" fill="#c2410c" /><rect x="90" y="0.215795" width="1" height="0.784205" fill="#c2410c" /><rect x="91" y="0.923016" width="1" height="0.076984" fill="#c2410c" /><rect x="92" y="0.997468" width="1" height="0.002532" fill="#c2410c" /><rect x="93" y="0.999964" width="1" height="0.000036" fill="#c2410c" /><rect x="94" y="1.000000" width="1" height="0.000000" fill="#c2410c" /><rect x="95" y="1.000000" width="1" height="0.000000" fill="#c2410c" /><rect x="96" y="1.000000" width="1" height="0.000000" fill="#c2410c" /><rect x="97" y="1.000000" width="1" height="0.000000" fill="#c2410c" /><rect x="98" y="1.000000" width="1" height="0.000000" fill="#c2410c" /><rect x="99" y="1.000000" width="1" height="0.000000" fill="#c2410c" /></svg>