<?xml version="1.0" encoding="UTF-8"?>
<svg xmlns="http://www.w3.org/2000/svg" viewBox="0 0 100 1" preserveAspectRatio="none"><rect x="0" y="0.377853" width="1" height="0.622147" fill="#c2410c" /><rect x="1" y="0.386998" width="1" height="0.613002" fill="#c2410c" /><rect x="2" y="0.361974" width="1" height="0.638026" fill="#c2410c" /><rect x="3" y="0.465769" width="1" height="0.534231" fill="#c2410c" /><rect x="4" y="0.202394" width="1" height="0.797606" fill="#c2410c" /><rect x="5" y="0.312965" width="1" height="0.687035" fill="#c2410c" /><rect x="6" y="0.223220" width="1" height="0.776780" fill="#c2410c" /><rect x="7" y="0.000000" width="1" height="1.000000" fill="#c2410c" /><rect x="8" y="0.178617" width="1" height="0.821383" fill="#c2410c" /><rect x="9" y="0.277424" width="1" height="0.722576" fill="#c2410c" /><rect x="10" y="0.193083" width="1" height="0.806917" fill="#c2410c" /><rect x="11" y="0.000000" width="1" height="1.000000" fill="#c2410c" /><rect x="12" y="0.071871" width="1" height="0.928129" fill="#c2410c" /><rect x="13" y="0.338529" width="1" height="0.661471" fill="#c2410c" /><rect x="14" y="0.136093" width="1" height="0.863907" fill="#c2410c" /><rect x="15" y="0.410899" width="1" height="0.589101" fill="#c2410c" /><rect x="16" y="0.333915" width="1" height="0.666085" fill="#c2410c" /><rect x="17" y="0.314628" width="1" height="0.685372" fill="#c2410c" /><rect x="18" y="0.189758" width="1" height="0.810242" fill="#c2410c" /><rect x="19" y="0.280459" width="1" height="0.719541" fill="#c2410c" /><rect x="20" y="0.222305" width="1" height="0.777695" fill="#c2410c" /><rect x="21" y="0.236771" width="1" height="0.763229" fill="#c2410c" /><rect x="22" y="0.000000" width="1" height="1.000000" fill="#c2410c" /><rect x="23" y="0.263291" width="1" height="0.736709" fill="#c2410c" /><rect x="24" y="0.393066" width="1" height="0.606934" fill="#c2410c" /><rect x="25" y="0.275346" width="1" height="0.724654" fill="#c2410c" /><rect x="26" y="0.305774" width="1" height="0.694226" fill="#c2410c" /><rect x="27" y="0.327306" width="1" height="0.672694" fill="#c2410c" /><rect x="28" y="0.228083" width="1" height="0.771917" fill="#c2410c" /><rect x="29" y="0.021532" width="1" height="0.978468" fill="#c2410c" /><rect x="30" y="0.169514" width="1" height="0.830486" fill="#c2410c" /><rect x="31" y="0.333749" width="1" height="0.666251" fill="#c2410c" /><rect x="32" y="0.314752" width="1" height="0.685248" fill="#c2410c" /><rect x="33" y="0.467432" width="1" height="0.532568" fill="#c2410c" /><rect x="34" y="0.274224" width="1" height="0.725776" fill="#c2410c" /><rect x="35" y="0.266908" width="1" height="0.733092" fill="#c2410c" /><rect x="36" y="0.194039" width="1" height="0.805961" fill="#c2410c" /><rect x="37" y="0.000000" width="1" height="1.000000" fill="#c2410c" /><rect x="38" y="0.375068" width="1" height="0.624932" fill="#c2410c" /><rect x="39" y="0.286569" width="1" height="0.713431" fill="#c2410c" /><rect x="40" y="0.307686" width="1" height="0.692314" fill="#c2410c" /><rect x="41" y="0.087584" width="1" height="0.912416" fill="#c2410c" /><rect x="42" y="0.083385" width="1" height="0.916615" fill="#c2410c" /><rect x="43" y="0.188511" width="1" height="0.811489" fill="#c2410c" /><rect x="44" y="0.026853" width="1" height="0.973147" fill="#c2410c" /><rect x="45" y="0.196367" width="1" height="0.803633" fill="#c2410c" /><rect x="46" y="0.405163" width="1" height="0.594837" fill="#c2410c" /><rect x="47" y="0.343725" width="1" height="0.656275" fill="#c2410c" /><rect x="48" y="0.373779" width="1" height="0.626221" fill="#c2410c" /><rect x="49" y="0.309058" width="1" height="0.690942" fill="#c2410c" /><rect x="50" y="0.104543" width="1" height="0.895457" fill="#c2410c" /><rect x="51" y="0.330424" width="1" height="0.669576" fill="#c2410c" /><rect x="52" y="0.000000" width="1" height="1.000000" fill="#c2410c" /><rect x="53" y="0.387579" width="1" height="0.612421" fill="#c2410c" /><rect x="54" y="0.402045" width="1" height="0.597955" fill="#c2410c" /><rect x="55" y="0.384503" width="1" height="0.615497" fill="#c2410c" /><rect x="56" y="0.097518" width="1" height="0.902482" fill="#c2410c" /><rect x="57" y="0.268030" width="1" height="0.731970" fill="#c2410c" /><rect x="58" y="0.242674" width="1" height="0.757326" fill="#c2410c" /><rect x="59" y="0.121877" width="1" height="0.878123" fill="#c2410c" /><rect x="60" y="0.073160" width="1" height="0.926840" fill="#c2410c" /><rect x="61" y="0.273018" width="1" height="0.726982" fill="#c2410c" /><rect x="62" y="0.382841" width="1" height="0.617159" fill="#c2410c" /><rect x="63" y="0.347175" width="1" height="0.652825" fill="#c2410c" /><rect x="64" y="0.299954" width="1" height="0.700046" fill="#c2410c" /><rect x="65" y="0.197656" width="1" height="0.802344" fill="#c2410c" /><rect x="66" y="0.260589" width="1" height="0.739411" fill="#c2410c" /><rect x="67" y="0.000000" width="1" height="1.000000" fill="#c2410c" /><rect x="68" y="0.315168" width="1" height="0.684832" fill="#c2410c" /><rect x="69" y="0.338654" width="1" height="0.661346" fill="#c2410c" /><rect x="70" y="0.303529" width="1" height="0.696471" fill="#c2410c" /><rect x="71" y="0.199859" width="1" height="0.800141" fill="#c2410c" /><rect x="72" y="0.212578" width="1" height="0.787422" fill="#c2410c" /><rect x="73" y="0.295590" width="1" height="0.704410" fill="#c2410c" /><rect x="74" y="0.289271" width="1" height="0.710729" fill="#c2410c" /><rect x="75" y="0.171218" width="1" height="0.828782" fill="#c2410c" /><rect x="76" y="0.262086" width="1" height="0.737914" fill="#c2410c" /><rect x="77" y="0.398886" width="1" height="0.601114" fill="#c2410c" /><rect x="78" y="0.047055" width="1" height="0.952945" fill="#c2410c" /><rect x="79" y="0.143700" width="1" height="0.856300" fill="#c2410c" /><rect x="80" y="0.318119" width="1" height="0.681881" fill="#c2410c" /><rect x="81" y="0.184104" width="1" height="0.815896" fill="#c2410c" /><rect x="82" y="0.089205" width="1" height="0.910795" fill="#c2410c" /><rect x="83" y="0.309764" width="1" height="0.690236" fill="#c2410c" /><rect x="84" y="0.375940" width="1" height="0.624060" fill="#c2410c" /><rect x="85" y="0.323357" width="1" height="0.676643" fill="#c2410c" /><rect x="86" y="0.282953" width="1" height="0.717047" fill="#c2410c" /><rect x="87" y="0.281831" width="1" height="0.718169" fill="#c2410c" /><rect x="88" y="0.370703" width="1" height="0.629297" fill="#c2410c" /><rect x="89" y="0.235275" width="1" height="0.764725" fill="#c2410c" /><rect x="90" y="0.068587" width="1" height="0.931413" fill="#c2410c" /><rect x="91" y="0.287110" width="1" height="0.712890" fill="#c2410c" /><rect x="92" y="0.277632" width="1" height="0.722368" fill="#c2410c" /><rect x="93" y="0.998420" width="1" height="0.001580" fill="#c2410c" /><rect x="94" y="0.999875" width="1" height="0.000125" fill="#c2410c" /><rect x="95" y="0.998878" width="1" height="0.001122" fill="#c2410c" /><rect x="96" y="1.000000" width="1" height="0.000000" fill="#c2410c" /><rect x="97" y="1.000000" width="1" height="0.000000" fill="#c2410c" /><rect x="98" y="1.000000" width="1" height="0.000000" fill="#c2410c" /><rect x="99" y="1.000000" width="1" height="0.000000" fill="#c2410c" /></svg>