<?xml version="1.0" encoding="UTF-8"?>
<svg xmlns="http://www.w3.org/2000/svg" viewBox="0 0 100 1" preserveAspectRatio="none"><rect x="0" y="0.841875" width="1" height="0.158125" fill="#c2410c" /><rect x="1" y="0.806834" width="1" height="0.193166" fill="#c2410c" /><rect x="2" y="0.814462" width="1" height="0.185538" fill="#c2410c" /><rect x="3" y="0.793325" width="1" height="0.206675" fill="#c2410c" /><rect x="4" y="0.807946" width="1" height="0.192054" fill="#c2410c" /><rect x="5" y="0.803298" width="1" height="0.196702" fill="#c2410c" /><rect x="6" y="0.712594" width="1" height="0.287406" fill="#c2410c" /><rect x="7" y="0.709257" width="1" height="0.290743" fill="#c2410c" /><rect x="8" y="0.658800" width="1" height="0.341200" fill="#c2410c" /><rect x="9" y="0.327573" width="1" height="0.672427" fill="#c2410c" /><rect x="10" y="0.064680" width="1" height="0.935320" fill="#c2410c" /><rect x="11" y="0.353874" width="1" height="0.646126" fill="#c2410c" /><rect x="12" y="0.317243" width="1" height="0.682757" fill="#c2410c" /><rect x="13" y="0.251093" width="1" height="0.748907" fill="#c2410c" /><rect x="14" y="0.450020" width="1" height="0.549980" fill="#c2410c" /><rect x="15" y="0.370640" width="1" height="0.629360" fill="#c2410c" /><rect x="16" y="0.373659" width="1" height="0.626341" fill="#c2410c" /><rect x="17" y="0.499205" width="1" height="0.500795" fill="#c2410c" /><rect x="18" y="0.386095" width="1" height="0.613905" fill="#c2410c" /><rect x="19" y="0.350497" width="1" height="0.649503" fill="#c2410c" /><rect x="20" y="0.285300" width="1" height="0.714700" fill="#c2410c" /><rect x="21" y="0.353754" width="1" height="0.646246" fill="#c2410c" /><rect x="22" y="0.237068" width="1" height="0.762932" fill="#c2410c" /><rect x="23" y="0.408502" width="1" height="0.591498" fill="#c2410c" /><rect x="24" y="0.218514" width="1" height="0.781486" fill="#c2410c" /><rect x="25" y="0.295312" width="1" height="0.704688" fill="#c2410c" /><rect x="26" y="0.393325" width="1" height="0.606675" fill="#c2410c" /><rect x="27" y="0.271395" width="1" height="0.728605" fill="#c2410c" /><rect x="28" y="0.013627" width="1" height="0.986373" fill="#c2410c" /><rect x="29" y="0.380453" width="1" height="0.619547" fill="#c2410c" /><rect x="30" y="0.441200" width="1" height="0.558800" fill="#c2410c" /><rect x="31" y="0.348192" width="1" height="0.651808" fill="#c2410c" /><rect x="32" y="0.394557" width="1" height="0.605443" fill="#c2410c" /><rect x="33" y="0.245530" width="1" height="0.754470" fill="#c2410c" /><rect x="34" y="0.268375" width="1" height="0.731625" fill="#c2410c" /><rect x="35" y="0.085022" width="1" height="0.914978" fill="#c2410c" /><rect x="36" y="0.130473" width="1" height="0.869527" fill="#c2410c" /><rect x="37" y="0.358562" width="1" height="0.641438" fill="#c2410c" /><rect x="38" y="0.313468" width="1" height="0.686532" fill="#c2410c" /><rect x="39" y="0.372030" width="1" height="0.627970" fill="#c2410c" /><rect x="40" y="0.209376" width="1" height="0.790624" fill="#c2410c" /><rect x="41" y="0.281049" width="1" height="0.718951" fill="#c2410c" /><rect x="42" y="0.301986" width="1" height="0.698014" fill="#c2410c" /><rect x="43" y="0.242193" width="1" height="0.757807" fill="#c2410c" /><rect x="44" y="0.119944" width="1" height="0.880056" fill="#c2410c" /><rect x="45" y="0.204609" width="1" height="0.795391" fill="#c2410c" /><rect x="46" y="0.000000" width="1" height="1.000000" fill="#c2410c" /><rect x="47" y="0.000000" width="1" height="1.000000" fill="#c2410c" /><rect x="48" y="0.200715" width="1" height="0.799285" fill="#c2410c" /><rect x="49" y="0.084505" width="1" height="0.915495" fill="#c2410c" /><rect x="50" y="0.191379" width="1" height="0.808621" fill="#c2410c" /><rect x="51" y="0.185300" width="1" height="0.814700" fill="#c2410c" /><rect x="52" y="0.138975" width="1" height="0.861025" fill="#c2410c" /><rect x="53" y="0.187366" width="1" height="0.812634" fill="#c2410c" /><rect x="54" y="0.126222" width="1" height="0.873778" fill="#c2410c" /><rect x="55" y="0.109932" width="1" height="0.890068" fill="#c2410c" /><rect x="56" y="0.181764" width="1" height="0.818236" fill="#c2410c" /><rect x="57" y="0.158800" width="1" height="0.841200" fill="#c2410c" /><rect x="58" y="0.000000" width="1" height="1.000000" fill="#c2410c" /><rect x="59" y="0.094080" width="1" height="0.905920" fill="#c2410c" /><rect x="60" y="0.062574" width="1" height="0.937426" fill="#c2410c" /><rect x="61" y="0.129877" width="1" height="0.870123" fill="#c2410c" /><rect x="62" y="0.211442" width="1" height="0.788558" fill="#c2410c" /><rect x="63" y="0.262972" width="1" height="0.737028" fill="#c2410c" /><rect x="64" y="0.114025" width="1" height="0.885975" fill="#c2410c" /><rect x="65" y="0.142829" width="1" height="0.857171" fill="#c2410c" /><rect x="66" y="0.114978" width="1" height="0.885022" fill="#c2410c" /><rect x="67" y="0.109376" width="1" height="0.890624" fill="#c2410c" /><rect x="68" y="0.009932" width="1" height="0.990068" fill="#c2410c" /><rect x="69" y="0.185499" width="1" height="0.814501" fill="#c2410c" /><rect x="70" y="0.218157" width="1" height="0.781843" fill="#c2410c" /><rect x="71" y="0.169050" width="1" height="0.830950" fill="#c2410c" /><rect x="72" y="0.062257" width="1" height="0.937743" fill="#c2410c" /><rect x="73" y="0.073381" width="1" height="0.926619" fill="#c2410c" /><rect x="74" y="0.141200" width="1" height="0.858800" fill="#c2410c" /><rect x="75" y="0.117441" width="1" height="0.882559" fill="#c2410c" /><rect x="76" y="0.000000" width="1" height="1.000000" fill="#c2410c" /><rect x="77" y="0.184466" width="1" height="0.815534" fill="#c2410c" /><rect x="78" y="0.023004" width="1" height="0.976996" fill="#c2410c" /><rect x="79" y="0.120302" width="1" height="0.879698" fill="#c2410c" /><rect x="80" y="0.079738" width="1" height="0.920262" fill="#c2410c" /><rect x="81" y="0.000000" width="1" height="1.000000" fill="#c2410c" /><rect x="82" y="0.163290" width="1" height="0.836710" fill="#c2410c" /><rect x="83" y="0.007390" width="1" height="0.992610" fill="#c2410c" /><rect x="84" y="0.054946" width="1" height="0.945054" fill="#c2410c" /><rect x="85" y="0.143425" width="1" height="0.856575" fill="#c2410c" /><rect x="86" y="0.000000" width="1" height="1.000000" fill="#c2410c" /><rect x="87" y="0.196464" width="1" height="0.803536" fill="#c2410c" /><rect x="88" y="0.001828" width="1" height="0.998172" fill="#c2410c" /><rect x="89" y="0.006635" width="1" height="0.993365" fill="#c2410c" /><rect x="90" y="0.092571" width="1" height="0.907429" fill="#c2410c" /><rect x="91" y="0.024513" width="1" height="0.975487" fill="#c2410c" /><rect x="92" y="0.159992" width="1" height="0.840008" fill="#c2410c" /><rect x="93" y="0.799921" width="1" height="0.200079" fill="#c2410c" /><rect x="94" y="0.940048" width="1" height="0.059952" fill="#c2410c" /><rect x="95" y="0.970083" width="1" height="0.029917" fill="#c2410c" /><rect x="96" y="0.988439" width="1" height="0.011561" fill="#c2410c" /><rect x="97" y="0.994756" width="1" height="0.005244" fill="#c2410c" /><rect x="98" y="0.997537" width="1" height="0.002463" fill="#c2410c" /><rect x="99" y="0.999364" width="1" height="0.000636" fill="#c2410c" /></svg>