<?xml version="1.0" encoding="UTF-8"?>
<svg xmlns="http://www.w3.org/2000/svg" viewBox="0 0 100 1" preserveAspectRatio="none"><rect x="0" y="0.000000" width="1" height="1.000000" fill="#c2410c" /><rect x="1" y="0.114774" width="1" height="0.885226" fill="#c2410c" /><rect x="2" y="0.000000" width="1" height="1.000000" fill="#c2410c" /><rect x="3" y="0.035253" width="1" height="0.964747" fill="#c2410c" /><rect x="4" y="0.135966" width="1" height="0.864034" fill="#c2410c" /><rect x="5" y="0.000000" width="1" height="1.000000" fill="#c2410c" /><rect x="6" y="0.124596" width="1" height="0.875404" fill="#c2410c" /><rect x="7" y="0.045075" width="1" height="0.954925" fill="#c2410c" /><rect x="8" y="0.183598" width="1" height="0.816402" fill="#c2410c" /><rect x="9" y="0.154265" width="1" height="0.845735" fill="#c2410c" /><rect x="10" y="0.128566" width="1" height="0.871434" fill="#c2410c" /><rect x="11" y="0.000000" width="1" height="1.000000" fill="#c2410c" /><rect x="12" y="0.119214" width="1" height="0.880786" fill="#c2410c" /><rect x="13" y="0.133948" width="1" height="0.866052" fill="#c2410c" /><rect x="14" y="0.139464" width="1" height="0.860536" fill="#c2410c" /><rect x="15" y="0.150565" width="1" height="0.849435" fill="#c2410c" /><rect x="16" y="0.073668" width="1" height="0.926332" fill="#c2410c" /><rect x="17" y="0.018232" width="1" height="0.981768" fill="#c2410c" /><rect x="18" y="0.135630" width="1" height="0.864370" fill="#c2410c" /><rect x="19" y="0.167317" width="1" height="0.832683" fill="#c2410c" /><rect x="20" y="0.118138" width="1" height="0.881862" fill="#c2410c" /><rect x="21" y="0.155140" width="1" height="0.844860" fill="#c2410c" /><rect x="22" y="0.105759" width="1" height="0.894241" fill="#c2410c" /><rect x="23" y="0.135630" width="1" height="0.864370" fill="#c2410c" /><rect x="24" y="0.325283" width="1" height="0.674717" fill="#c2410c" /><rect x="25" y="0.231028" width="1" height="0.768972" fill="#c2410c" /><rect x="26" y="0.147672" width="1" height="0.852328" fill="#c2410c" /><rect x="27" y="0.264801" width="1" height="0.735199" fill="#c2410c" /><rect x="28" y="0.303350" width="1" height="0.696650" fill="#c2410c" /><rect x="29" y="0.174717" width="1" height="0.825283" fill="#c2410c" /><rect x="30" y="0.278391" width="1" height="0.721609" fill="#c2410c" /><rect x="31" y="0.253297" width="1" height="0.746703" fill="#c2410c" /><rect x="32" y="0.297363" width="1" height="0.702637" fill="#c2410c" /><rect x="33" y="0.386302" width="1" height="0.613698" fill="#c2410c" /><rect x="34" y="0.236747" width="1" height="0.763253" fill="#c2410c" /><rect x="35" y="0.202099" width="1" height="0.797901" fill="#c2410c" /><rect x="36" y="0.102597" width="1" height="0.897403" fill="#c2410c" /><rect x="37" y="0.089949" width="1" height="0.910051" fill="#c2410c" /><rect x="38" y="0.177072" width="1" height="0.822928" fill="#c2410c" /><rect x="39" y="0.103673" width="1" height="0.896327" fill="#c2410c" /><rect x="40" y="0.103741" width="1" height="0.896259" fill="#c2410c" /><rect x="41" y="0.056041" width="1" height="0.943959" fill="#c2410c" /><rect x="42" y="0.143030" width="1" height="0.856970" fill="#c2410c" /><rect x="43" y="0.018434" width="1" height="0.981566" fill="#c2410c" /><rect x="44" y="0.195775" width="1" height="0.804225" fill="#c2410c" /><rect x="45" y="0.227731" width="1" height="0.772269" fill="#c2410c" /><rect x="46" y="0.086854" width="1" height="0.913146" fill="#c2410c" /><rect x="47" y="0.239370" width="1" height="0.760630" fill="#c2410c" /><rect x="48" y="0.078848" width="1" height="0.921152" fill="#c2410c" /><rect x="49" y="0.149152" width="1" height="0.850848" fill="#c2410c" /><rect x="50" y="0.027180" width="1" height="0.972820" fill="#c2410c" /><rect x="51" y="0.085374" width="1" height="0.914626" fill="#c2410c" /><rect x="52" y="0.000000" width="1" height="1.000000" fill="#c2410c" /><rect x="53" y="0.135293" width="1" height="0.864707" fill="#c2410c" /><rect x="54" y="0.111545" width="1" height="0.888455" fill="#c2410c" /><rect x="55" y="0.117129" width="1" height="0.882871" fill="#c2410c" /><rect x="56" y="0.182051" width="1" height="0.817949" fill="#c2410c" /><rect x="57" y="0.167317" width="1" height="0.832683" fill="#c2410c" /><rect x="58" y="0.091698" width="1" height="0.908302" fill="#c2410c" /><rect x="59" y="0.065124" width="1" height="0.934876" fill="#c2410c" /><rect x="60" y="0.167788" width="1" height="0.832212" fill="#c2410c" /><rect x="61" y="0.084634" width="1" height="0.915366" fill="#c2410c" /><rect x="62" y="0.146327" width="1" height="0.853673" fill="#c2410c" /><rect x="63" y="0.141214" width="1" height="0.858786" fill="#c2410c" /><rect x="64" y="0.221609" width="1" height="0.778391" fill="#c2410c" /><rect x="65" y="0.250202" width="1" height="0.749798" fill="#c2410c" /><rect x="66" y="0.126682" width="1" height="0.873318" fill="#c2410c" /><rect x="67" y="0.065191" width="1" height="0.934809" fill="#c2410c" /><rect x="68" y="0.178619" width="1" height="0.821381" fill="#c2410c" /><rect x="69" y="0.288213" width="1" height="0.711787" fill="#c2410c" /><rect x="70" y="0.076830" width="1" height="0.923170" fill="#c2410c" /><rect x="71" y="0.044672" width="1" height="0.955328" fill="#c2410c" /><rect x="72" y="0.119483" width="1" height="0.880517" fill="#c2410c" /><rect x="73" y="0.175525" width="1" height="0.824475" fill="#c2410c" /><rect x="74" y="0.227059" width="1" height="0.772941" fill="#c2410c" /><rect x="75" y="0.064989" width="1" height="0.935011" fill="#c2410c" /><rect x="76" y="0.178014" width="1" height="0.821986" fill="#c2410c" /><rect x="77" y="0.063778" width="1" height="0.936222" fill="#c2410c" /><rect x="78" y="0.018636" width="1" height="0.981364" fill="#c2410c" /><rect x="79" y="0.149421" width="1" height="0.850579" fill="#c2410c" /><rect x="80" y="0.039290" width="1" height="0.960710" fill="#c2410c" /><rect x="81" y="0.221677" width="1" height="0.778323" fill="#c2410c" /><rect x="82" y="0.000000" width="1" height="1.000000" fill="#c2410c" /><rect x="83" y="0.155745" width="1" height="0.844255" fill="#c2410c" /><rect x="84" y="0.238092" width="1" height="0.761908" fill="#c2410c" /><rect x="85" y="0.200619" width="1" height="0.799381" fill="#c2410c" /><rect x="86" y="0.048237" width="1" height="0.951763" fill="#c2410c" /><rect x="87" y="0.276372" width="1" height="0.723628" fill="#c2410c" /><rect x="88" y="0.121165" width="1" height="0.878835" fill="#c2410c" /><rect x="89" y="0.170344" width="1" height="0.829656" fill="#c2410c" /><rect x="90" y="0.122242" width="1" height="0.877758" fill="#c2410c" /><rect x="91" y="0.197457" width="1" height="0.802543" fill="#c2410c" /><rect x="92" y="0.148009" width="1" height="0.851991" fill="#c2410c" /><rect x="93" y="0.275767" width="1" height="0.724233" fill="#c2410c" /><rect x="94" y="0.146058" width="1" height="0.853942" fill="#c2410c" /><rect x="95" y="0.014330" width="1" height="0.985670" fill="#c2410c" /><rect x="96" y="0.369685" width="1" height="0.630315" fill="#c2410c" /><rect x="97" y="0.989639" width="1" height="0.010361" fill="#c2410c" /><rect x="98" y="1.000000" width="1" height="0.000000" fill="#c2410c" /><rect x="99" y="1.000000" width="1" height="0.000000" fill="#c2410c" /></svg>