<?xml version="1.0" encoding="UTF-8"?>
<svg xmlns="http://www.w3.org/2000/svg" viewBox="0 0 100 1" preserveAspectRatio="none"><rect x="0" y="0.749138" width="1" height="0.250862" fill="#c2410c" /><rect x="1" y="0.853723" width="1" height="0.146277" fill="#c2410c" /><rect x="2" y="0.753134" width="1" height="0.246866" fill="#c2410c" /><rect x="3" y="0.746698" width="1" height="0.253302" fill="#c2410c" /><rect x="4" y="0.529828" width="1" height="0.470172" fill="#c2410c" /><rect x="5" y="0.629870" width="1" height="0.370130" fill="#c2410c" /><rect x="6" y="0.606437" width="1" height="0.393563" fill="#c2410c" /><rect x="7" y="0.509634" width="1" height="0.490366" fill="#c2410c" /><rect x="8" y="0.589020" width="1" height="0.410980" fill="#c2410c" /><rect x="9" y="0.246908" width="1" height="0.753092" fill="#c2410c" /><rect x="10" y="0.290829" width="1" height="0.709171" fill="#c2410c" /><rect x="11" y="0.389777" width="1" height="0.610223" fill="#c2410c" /><rect x="12" y="0.000000" width="1" height="1.000000" fill="#c2410c" /><rect x="13" y="0.000000" width="1" height="1.000000" fill="#c2410c" /><rect x="14" y="0.253723" width="1" height="0.746277" fill="#c2410c" /><rect x="15" y="0.218511" width="1" height="0.781489" fill="#c2410c" /><rect x="16" y="0.140345" width="1" height="0.859655" fill="#c2410c" /><rect x="17" y="0.343711" width="1" height="0.656289" fill="#c2410c" /><rect x="18" y="0.261590" width="1" height="0.738410" fill="#c2410c" /><rect x="19" y="0.266428" width="1" height="0.733572" fill="#c2410c" /><rect x="20" y="0.152209" width="1" height="0.847791" fill="#c2410c" /><rect x="21" y="0.079091" width="1" height="0.920909" fill="#c2410c" /><rect x="22" y="0.122760" width="1" height="0.877240" fill="#c2410c" /><rect x="23" y="0.000000" width="1" height="1.000000" fill="#c2410c" /><rect x="24" y="0.180564" width="1" height="0.819436" fill="#c2410c" /><rect x="25" y="0.103828" width="1" height="0.896172" fill="#c2410c" /><rect x="26" y="0.223012" width="1" height="0.776988" fill="#c2410c" /><rect x="27" y="0.133235" width="1" height="0.866765" fill="#c2410c" /><rect x="28" y="0.060244" width="1" height="0.939756" fill="#c2410c" /><rect x="29" y="0.139419" width="1" height="0.860581" fill="#c2410c" /><rect x="30" y="0.218469" width="1" height="0.781531" fill="#c2410c" /><rect x="31" y="0.141902" width="1" height="0.858098" fill="#c2410c" /><rect x="32" y="0.301010" width="1" height="0.698990" fill="#c2410c" /><rect x="33" y="0.302735" width="1" height="0.697265" fill="#c2410c" /><rect x="34" y="0.446487" width="1" height="0.553513" fill="#c2410c" /><rect x="35" y="0.087884" width="1" height="0.912116" fill="#c2410c" /><rect x="36" y="0.205553" width="1" height="0.794447" fill="#c2410c" /><rect x="37" y="0.195919" width="1" height="0.804081" fill="#c2410c" /><rect x="38" y="0.232814" width="1" height="0.767186" fill="#c2410c" /><rect x="39" y="0.000000" width="1" height="1.000000" fill="#c2410c" /><rect x="40" y="0.267228" width="1" height="0.732772" fill="#c2410c" /><rect x="41" y="0.272444" width="1" height="0.727556" fill="#c2410c" /><rect x="42" y="0.056121" width="1" height="0.943879" fill="#c2410c" /><rect x="43" y="0.422339" width="1" height="0.577661" fill="#c2410c" /><rect x="44" y="0.000000" width="1" height="1.000000" fill="#c2410c" /><rect x="45" y="0.302272" width="1" height="0.697728" fill="#c2410c" /><rect x="46" y="0.169794" width="1" height="0.830206" fill="#c2410c" /><rect x="47" y="0.171224" width="1" height="0.828776" fill="#c2410c" /><rect x="48" y="0.000000" width="1" height="1.000000" fill="#c2410c" /><rect x="49" y="0.222844" width="1" height="0.777156" fill="#c2410c" /><rect x="50" y="0.281994" width="1" height="0.718006" fill="#c2410c" /><rect x="51" y="0.316281" width="1" height="0.683719" fill="#c2410c" /><rect x="52" y="0.017459" width="1" height="0.982541" fill="#c2410c" /><rect x="53" y="0.123812" width="1" height="0.876188" fill="#c2410c" /><rect x="54" y="0.111022" width="1" height="0.888978" fill="#c2410c" /><rect x="55" y="0.133151" width="1" height="0.866849" fill="#c2410c" /><rect x="56" y="0.130837" width="1" height="0.869163" fill="#c2410c" /><rect x="57" y="0.230080" width="1" height="0.769920" fill="#c2410c" /><rect x="58" y="0.090660" width="1" height="0.909340" fill="#c2410c" /><rect x="59" y="0.259066" width="1" height="0.740934" fill="#c2410c" /><rect x="60" y="0.375305" width="1" height="0.624695" fill="#c2410c" /><rect x="61" y="0.294026" width="1" height="0.705974" fill="#c2410c" /><rect x="62" y="0.075599" width="1" height="0.924401" fill="#c2410c" /><rect x="63" y="0.202230" width="1" height="0.797770" fill="#c2410c" /><rect x="64" y="0.182878" width="1" height="0.817122" fill="#c2410c" /><rect x="65" y="0.142364" width="1" height="0.857636" fill="#c2410c" /><rect x="66" y="0.168574" width="1" height="0.831426" fill="#c2410c" /><rect x="67" y="0.342995" width="1" height="0.657005" fill="#c2410c" /><rect x="68" y="0.216533" width="1" height="0.783467" fill="#c2410c" /><rect x="69" y="0.388936" width="1" height="0.611064" fill="#c2410c" /><rect x="70" y="0.441186" width="1" height="0.558814" fill="#c2410c" /><rect x="71" y="0.472234" width="1" height="0.527766" fill="#c2410c" /><rect x="72" y="0.563231" width="1" height="0.436769" fill="#c2410c" /><rect x="73" y="0.749348" width="1" height="0.250652" fill="#c2410c" /><rect x="74" y="0.675221" width="1" height="0.324779" fill="#c2410c" /><rect x="75" y="0.785696" width="1" height="0.214304" fill="#c2410c" /><rect x="76" y="0.776862" width="1" height="0.223138" fill="#c2410c" /><rect x="77" y="0.620320" width="1" height="0.379680" fill="#c2410c" /><rect x="78" y="0.694279" width="1" height="0.305721" fill="#c2410c" /><rect x="79" y="0.783845" width="1" height="0.216155" fill="#c2410c" /><rect x="80" y="0.672697" width="1" height="0.327303" fill="#c2410c" /><rect x="81" y="0.673959" width="1" height="0.326041" fill="#c2410c" /><rect x="82" y="0.733656" width="1" height="0.266344" fill="#c2410c" /><rect x="83" y="0.585696" width="1" height="0.414304" fill="#c2410c" /><rect x="84" y="0.536222" width="1" height="0.463778" fill="#c2410c" /><rect x="85" y="0.682331" width="1" height="0.317669" fill="#c2410c" /><rect x="86" y="0.802103" width="1" height="0.197897" fill="#c2410c" /><rect x="87" y="0.799453" width="1" height="0.200547" fill="#c2410c" /><rect x="88" y="0.296550" width="1" height="0.703450" fill="#c2410c" /><rect x="89" y="0.586369" width="1" height="0.413631" fill="#c2410c" /><rect x="90" y="0.579386" width="1" height="0.420614" fill="#c2410c" /><rect x="91" y="0.805721" width="1" height="0.194279" fill="#c2410c" /><rect x="92" y="0.791544" width="1" height="0.208456" fill="#c2410c" /><rect x="93" y="0.713757" width="1" height="0.286243" fill="#c2410c" /><rect x="94" y="0.982373" width="1" height="0.017627" fill="#c2410c" /><rect x="95" y="0.999958" width="1" height="0.000042" fill="#c2410c" /><rect x="96" y="1.000000" width="1" height="0.000000" fill="#c2410c" /><rect x="97" y="1.000000" width="1" height="0.000000" fill="#c2410c" /><rect x="98" y="1.000000" width="1" height="0.000000" fill="#c2410c" /><rect x="99" y="1.000000" width="1" height="0.000000" fill="#c2410c" /></svg>