<?xml version="1.0" encoding="UTF-8"?>
<svg xmlns="http://www.w3.org/2000/svg" viewBox="0 0 100 1" preserveAspectRatio="none"><rect x="0" y="0.000000" width="1" height="1.000000" fill="#c2410c" /><rect x="1" y="0.041049" width="1" height="0.958951" fill="#c2410c" /><rect x="2" y="0.170694" width="1" height="0.829306" fill="#c2410c" /><rect x="3" y="0.171408" width="1" height="0.828592" fill="#c2410c" /><rect x="4" y="0.245404" width="1" height="0.754596" fill="#c2410c" /><rect x="5" y="0.130680" width="1" height="0.869320" fill="#c2410c" /><rect x="6" y="0.185865" width="1" height="0.814135" fill="#c2410c" /><rect x="7" y="0.000000" width="1" height="1.000000" fill="#c2410c" /><rect x="8" y="0.325861" width="1" height="0.674139" fill="#c2410c" /><rect x="9" y="0.053614" width="1" height="0.946386" fill="#c2410c" /><rect x="10" y="0.070427" width="1" height="0.929573" fill="#c2410c" /><rect x="11" y="0.119436" width="1" height="0.880564" fill="#c2410c" /><rect x="12" y="0.107157" width="1" height="0.892843" fill="#c2410c" /><rect x="13" y="0.201428" width="1" height="0.798572" fill="#c2410c" /><rect x="14" y="0.170373" width="1" height="0.829627" fill="#c2410c" /><rect x="15" y="0.024701" width="1" height="0.975299" fill="#c2410c" /><rect x="16" y="0.196288" width="1" height="0.803712" fill="#c2410c" /><rect x="17" y="0.117687" width="1" height="0.882313" fill="#c2410c" /><rect x="18" y="0.053043" width="1" height="0.946957" fill="#c2410c" /><rect x="19" y="0.150348" width="1" height="0.849652" fill="#c2410c" /><rect x="20" y="0.145279" width="1" height="0.854721" fill="#c2410c" /><rect x="21" y="0.069142" width="1" height="0.930858" fill="#c2410c" /><rect x="22" y="0.083741" width="1" height="0.916259" fill="#c2410c" /><rect x="23" y="0.000000" width="1" height="1.000000" fill="#c2410c" /><rect x="24" y="0.056934" width="1" height="0.943066" fill="#c2410c" /><rect x="25" y="0.126861" width="1" height="0.873139" fill="#c2410c" /><rect x="26" y="0.199036" width="1" height="0.800964" fill="#c2410c" /><rect x="27" y="0.328574" width="1" height="0.671426" fill="#c2410c" /><rect x="28" y="0.049366" width="1" height="0.950634" fill="#c2410c" /><rect x="29" y="0.185758" width="1" height="0.814242" fill="#c2410c" /><rect x="30" y="0.329395" width="1" height="0.670605" fill="#c2410c" /><rect x="31" y="0.031519" width="1" height="0.968481" fill="#c2410c" /><rect x="32" y="0.301981" width="1" height="0.698019" fill="#c2410c" /><rect x="33" y="0.076138" width="1" height="0.923862" fill="#c2410c" /><rect x="34" y="0.139283" width="1" height="0.860717" fill="#c2410c" /><rect x="35" y="0.150134" width="1" height="0.849866" fill="#c2410c" /><rect x="36" y="0.053793" width="1" height="0.946207" fill="#c2410c" /><rect x="37" y="0.162270" width="1" height="0.837730" fill="#c2410c" /><rect x="38" y="0.127539" width="1" height="0.872461" fill="#c2410c" /><rect x="39" y="0.262074" width="1" height="0.737926" fill="#c2410c" /><rect x="40" y="0.112690" width="1" height="0.887310" fill="#c2410c" /><rect x="41" y="0.014921" width="1" height="0.985079" fill="#c2410c" /><rect x="42" y="0.156238" width="1" height="0.843762" fill="#c2410c" /><rect x="43" y="0.197573" width="1" height="0.802427" fill="#c2410c" /><rect x="44" y="0.179511" width="1" height="0.820489" fill="#c2410c" /><rect x="45" y="0.122791" width="1" height="0.877209" fill="#c2410c" /><rect x="46" y="0.254292" width="1" height="0.745708" fill="#c2410c" /><rect x="47" y="0.069606" width="1" height="0.930394" fill="#c2410c" /><rect x="48" y="0.306729" width="1" height="0.693271" fill="#c2410c" /><rect x="49" y="0.034517" width="1" height="0.965483" fill="#c2410c" /><rect x="50" y="0.054292" width="1" height="0.945708" fill="#c2410c" /><rect x="51" y="0.235517" width="1" height="0.764483" fill="#c2410c" /><rect x="52" y="0.091986" width="1" height="0.908014" fill="#c2410c" /><rect x="53" y="0.034767" width="1" height="0.965233" fill="#c2410c" /><rect x="54" y="0.000000" width="1" height="1.000000" fill="#c2410c" /><rect x="55" y="0.000000" width="1" height="1.000000" fill="#c2410c" /><rect x="56" y="0.136748" width="1" height="0.863252" fill="#c2410c" /><rect x="57" y="0.160985" width="1" height="0.839015" fill="#c2410c" /><rect x="58" y="0.177976" width="1" height="0.822024" fill="#c2410c" /><rect x="59" y="0.245083" width="1" height="0.754917" fill="#c2410c" /><rect x="60" y="0.178440" width="1" height="0.821560" fill="#c2410c" /><rect x="61" y="0.205140" width="1" height="0.794860" fill="#c2410c" /><rect x="62" y="0.156630" width="1" height="0.843370" fill="#c2410c" /><rect x="63" y="0.000000" width="1" height="1.000000" fill="#c2410c" /><rect x="64" y="0.257755" width="1" height="0.742245" fill="#c2410c" /><rect x="65" y="0.129538" width="1" height="0.870462" fill="#c2410c" /><rect x="66" y="0.126611" width="1" height="0.873389" fill="#c2410c" /><rect x="67" y="0.097948" width="1" height="0.902052" fill="#c2410c" /><rect x="68" y="0.190148" width="1" height="0.809852" fill="#c2410c" /><rect x="69" y="0.139639" width="1" height="0.860361" fill="#c2410c" /><rect x="70" y="0.275103" width="1" height="0.724897" fill="#c2410c" /><rect x="71" y="0.234089" width="1" height="0.765911" fill="#c2410c" /><rect x="72" y="0.111940" width="1" height="0.888060" fill="#c2410c" /><rect x="73" y="0.230020" width="1" height="0.769980" fill="#c2410c" /><rect x="74" y="0.320079" width="1" height="0.679921" fill="#c2410c" /><rect x="75" y="0.146100" width="1" height="0.853900" fill="#c2410c" /><rect x="76" y="0.236944" width="1" height="0.763056" fill="#c2410c" /><rect x="77" y="0.041049" width="1" height="0.958951" fill="#c2410c" /><rect x="78" y="0.146636" width="1" height="0.853364" fill="#c2410c" /><rect x="79" y="0.062645" width="1" height="0.937355" fill="#c2410c" /><rect x="80" y="0.208495" width="1" height="0.791505" fill="#c2410c" /><rect x="81" y="0.128467" width="1" height="0.871533" fill="#c2410c" /><rect x="82" y="0.217848" width="1" height="0.782152" fill="#c2410c" /><rect x="83" y="0.099804" width="1" height="0.900196" fill="#c2410c" /><rect x="84" y="0.049973" width="1" height="0.950027" fill="#c2410c" /><rect x="85" y="0.240193" width="1" height="0.759807" fill="#c2410c" /><rect x="86" y="0.093985" width="1" height="0.906015" fill="#c2410c" /><rect x="87" y="0.132536" width="1" height="0.867464" fill="#c2410c" /><rect x="88" y="0.080207" width="1" height="0.919793" fill="#c2410c" /><rect x="89" y="0.155310" width="1" height="0.844690" fill="#c2410c" /><rect x="90" y="0.063038" width="1" height="0.936962" fill="#c2410c" /><rect x="91" y="0.166268" width="1" height="0.833732" fill="#c2410c" /><rect x="92" y="0.082848" width="1" height="0.917152" fill="#c2410c" /><rect x="93" y="0.253543" width="1" height="0.746457" fill="#c2410c" /><rect x="94" y="0.162413" width="1" height="0.837587" fill="#c2410c" /><rect x="95" y="0.040550" width="1" height="0.959450" fill="#c2410c" /><rect x="96" y="0.025201" width="1" height="0.974799" fill="#c2410c" /><rect x="97" y="0.853221" width="1" height="0.146779" fill="#c2410c" /><rect x="98" y="0.979868" width="1" height="0.020132" fill="#c2410c" /><rect x="99" y="1.000000" width="1" height="0.000000" fill="#c2410c" /></svg>